<svg width="48" height="49" viewBox="0 0 48 49" fill="none" xmlns="http://www.w3.org/2000/svg">
<g clip-path="url(#clip0_10696_13750)">
<rect y="0.456055" width="48" height="48" rx="14.4" fill="#F1EAFF"/>
<path d="M56.6903 28.7133C56.6903 48.0806 40.4547 63.8391 20.3542 63.8391C0.253693 63.8391 -15.9819 48.0806 -15.9819 28.7133C-15.9819 9.34593 0.253693 -6.41255 20.3542 -6.41255C40.4547 -6.41255 56.6903 9.34593 56.6903 28.7133Z" fill="white" stroke="#645CAA" stroke-width="2.08701"/>
<circle cx="24.8781" cy="25.7501" r="24.3209" stroke="#645CAA" stroke-width="2.08701"/>
<path fill-rule="evenodd" clip-rule="evenodd" d="M24.8781 51.1145C38.8864 51.1145 50.2424 39.7585 50.2424 25.7501C50.2424 25.3082 50.2311 24.8689 50.2088 24.4326C49.5604 36.4426 39.6164 45.9815 27.4446 45.9815C14.8537 45.9815 4.64677 35.7745 4.64677 23.1837C4.64677 11.0116 14.186 1.06746 26.1964 0.419415C25.7598 0.397058 25.3202 0.385742 24.8781 0.385742C10.8697 0.385742 -0.486328 11.7418 -0.486328 25.7501C-0.486328 39.7585 10.8697 51.1145 24.8781 51.1145Z" fill="black" fill-opacity="0.2"/>
<ellipse cx="15.2039" cy="19.8216" rx="4.20781" ry="4.07157" fill="#1E1E1E"/>
<ellipse cx="38.7156" cy="19.8216" rx="4.20781" ry="4.07157" fill="#1E1E1E"/>
<ellipse cx="15.7665" cy="18.6867" rx="1.71184" ry="1.65642" fill="white" fill-opacity="0.4"/>
<ellipse cx="39.372" cy="18.6867" rx="1.71184" ry="1.65642" fill="white" fill-opacity="0.4"/>
<path d="M30.3073 27.1826C30.3073 29.1126 28.7428 30.6771 26.8128 30.6771C24.8829 30.6771 23.3184 29.1126 23.3184 27.1826" stroke="#645CAA" stroke-width="2.08701" stroke-linecap="round"/>
<ellipse cx="11.1801" cy="27.7665" rx="4.36763" ry="2.90715" fill="#F86C65"/>
<ellipse cx="42.4458" cy="27.7665" rx="4.36763" ry="2.90715" fill="#F86C65"/>
<path fill-rule="evenodd" clip-rule="evenodd" d="M51.4715 48.7603C45.243 54.4215 36.8603 57.8894 27.6406 57.8894C8.41314 57.8894 -7.17377 42.8072 -7.17377 24.2023C-7.17377 10.0767 1.81123 -2.01826 14.5528 -7.02344C-3.33636 -4.3262 -17.0254 10.6465 -17.0254 28.7129C-17.0254 48.6887 -0.289978 64.8822 20.3542 64.8822C33.335 64.8822 44.7703 58.4797 51.4715 48.7603Z" fill="black" fill-opacity="0.2"/>
<path d="M56.6903 28.7133C56.6903 48.0806 40.4547 63.8391 20.3542 63.8391C0.253693 63.8391 -15.9819 48.0806 -15.9819 28.7133C-15.9819 9.34593 0.253693 -6.41255 20.3542 -6.41255C40.4547 -6.41255 56.6903 9.34593 56.6903 28.7133Z" stroke="#645CAA" stroke-width="2.08701"/>
<circle cx="24.8781" cy="25.7501" r="24.3209" stroke="#645CAA" stroke-width="2.08701"/>
</g>
<rect x="1" y="1.45605" width="46" height="46" rx="23" stroke="#645CAA" stroke-width="2"/>
<defs>
<clipPath id="clip0_10696_13750">
<rect y="0.456055" width="48" height="48" rx="24" fill="white"/>
</clipPath>
</defs>
</svg>
