<svg width="80" height="80" viewBox="0 0 80 80" fill="none" xmlns="http://www.w3.org/2000/svg">
<rect width="80" height="80" rx="24" fill="#F1EAFF"/>
<path d="M8.94725 40.2064C8.94725 55.745 21.9732 68.3881 38.0999 68.3881C54.2267 68.3881 67.2526 55.745 67.2526 40.2064C67.2526 24.6678 54.2267 12.0247 38.0999 12.0247C21.9732 12.0247 8.94725 24.6678 8.94725 40.2064Z" fill="white" stroke="#645CAA" stroke-width="1.67442"/>
<circle cx="20.35" cy="20.35" r="19.5128" transform="matrix(-1 0 0 1 54.8203 17.4795)" stroke="#645CAA" stroke-width="1.67442"/>
<path fill-rule="evenodd" clip-rule="evenodd" d="M34.4703 58.1786C23.2313 58.1786 14.1203 49.0675 14.1203 37.8285C14.1203 37.474 14.1293 37.1216 14.1473 36.7715C14.6675 46.4072 22.6456 54.0603 32.4111 54.0603C42.5129 54.0603 50.702 45.8712 50.702 35.7694C50.702 26.0037 43.0486 18.0255 33.4125 17.5055C33.7629 17.4876 34.1155 17.4785 34.4703 17.4785C45.7093 17.4785 54.8203 26.5895 54.8203 37.8285C54.8203 49.0675 45.7093 58.1786 34.4703 58.1786Z" fill="black" fill-opacity="0.2"/>
<ellipse cx="3.37595" cy="3.26665" rx="3.37595" ry="3.26665" transform="matrix(-1 0 0 1 45.6074 29.8057)" fill="#1E1E1E"/>
<ellipse cx="3.37595" cy="3.26665" rx="3.37595" ry="3.26665" transform="matrix(-1 0 0 1 26.7441 29.8057)" fill="#1E1E1E"/>
<ellipse cx="1.37342" cy="1.32895" rx="1.37342" ry="1.32895" transform="matrix(-1 0 0 1 43.1543 30.833)" fill="white" fill-opacity="0.4"/>
<ellipse cx="1.37342" cy="1.32895" rx="1.37342" ry="1.32895" transform="matrix(-1 0 0 1 24.2148 30.833)" fill="white" fill-opacity="0.4"/>
<path d="M30.1134 38.9785C30.1134 40.5269 31.3687 41.7822 32.9171 41.7822C34.4655 41.7822 35.7207 40.5269 35.7207 38.9785" stroke="#645CAA" stroke-width="1.67442" stroke-linecap="round"/>
<ellipse cx="3.50418" cy="2.33242" rx="3.50418" ry="2.33242" transform="matrix(-1 0 0 1 48.9629 37.1143)" fill="#F86C65"/>
<ellipse cx="3.50418" cy="2.33242" rx="3.50418" ry="2.33242" transform="matrix(-1 0 0 1 23.8809 37.1143)" fill="#F86C65"/>
<path fill-rule="evenodd" clip-rule="evenodd" d="M13.1342 56.2906C18.1313 60.8327 24.8569 63.6151 32.254 63.6151C47.6803 63.6151 60.1858 51.5145 60.1858 36.5877C60.1858 25.2547 52.9772 15.5509 42.7548 11.5352C57.1072 13.6993 68.0898 25.7119 68.0898 40.2066C68.0898 56.2333 54.6629 69.2255 38.0999 69.2255C27.6853 69.2255 18.5106 64.0887 13.1342 56.2906Z" fill="black" fill-opacity="0.2"/>
<path d="M8.94725 40.2064C8.94725 55.745 21.9732 68.3881 38.0999 68.3881C54.2267 68.3881 67.2526 55.745 67.2526 40.2064C67.2526 24.6678 54.2267 12.0247 38.0999 12.0247C21.9732 12.0247 8.94725 24.6678 8.94725 40.2064Z" stroke="#645CAA" stroke-width="1.67442"/>
<circle cx="7.95434" cy="7.95434" r="7.11713" transform="matrix(-1 0 0 1 74.3105 31.4922)" fill="#D0A2F7" stroke="#645CAA" stroke-width="1.67442"/>
<circle cx="5.31728" cy="5.31728" r="4.48007" transform="matrix(-1 0 0 1 79.9219 10.5586)" fill="#D0A2F7" stroke="#645CAA" stroke-width="1.67442"/>
<line y1="-0.837209" x2="13.853" y2="-0.837209" transform="matrix(-0.277919 0.960604 0.960604 0.277919 74.6035 19.7646)" stroke="#645CAA" stroke-width="1.67442"/>
<circle cx="20.35" cy="20.35" r="19.5128" transform="matrix(-1 0 0 1 54.8203 17.4795)" stroke="#645CAA" stroke-width="1.67442"/>
<ellipse cx="2.86721" cy="2.77438" rx="2.86721" ry="2.77438" transform="matrix(-1 0 0 1 67.8242 34.7051)" fill="white" fill-opacity="0.4"/>
<ellipse cx="1.44999" cy="1.40304" rx="1.44999" ry="1.40304" transform="matrix(-1 0 0 1 75.082 13.2705)" fill="white" fill-opacity="0.4"/>
<circle cx="70" cy="70" r="5.11755" fill="#12A73B" stroke="white" stroke-width="1.7649"/>
</svg>
