<svg width="136" height="113" viewBox="0 0 136 113" fill="none" xmlns="http://www.w3.org/2000/svg">
<path d="M133.368 57.3854C133.368 86.363 109.076 109.941 79.0019 109.941C48.9273 109.941 24.6355 86.363 24.6355 57.3854C24.6355 28.4078 48.9273 4.82985 79.0019 4.82985C109.076 4.82985 133.368 28.4078 133.368 57.3854Z" fill="white" stroke="#645CAA" stroke-width="3.12259"/>
<circle cx="85.7707" cy="52.9514" r="36.3891" stroke="#645CAA" stroke-width="3.12259"/>
<path fill-rule="evenodd" clip-rule="evenodd" d="M85.7707 90.9017C106.73 90.9017 123.721 73.9108 123.721 52.9514C123.721 52.2909 123.704 51.6344 123.671 50.9823C122.7 68.9507 107.822 83.2216 89.611 83.2216C70.7724 83.2216 55.5008 67.9499 55.5008 49.1113C55.5008 30.8997 69.7727 16.0216 87.7422 15.0513C87.0893 15.0179 86.432 15.001 85.7707 15.001C64.8113 15.001 47.8203 31.9919 47.8203 52.9514C47.8203 73.9108 64.8113 90.9017 85.7707 90.9017Z" fill="black" fill-opacity="0.2"/>
<ellipse cx="71.2977" cy="44.0802" rx="6.29576" ry="6.09192" fill="#1E1E1E"/>
<ellipse cx="106.475" cy="44.0802" rx="6.29576" ry="6.09192" fill="#1E1E1E"/>
<ellipse cx="72.1394" cy="42.3826" rx="2.56127" ry="2.47834" fill="white" fill-opacity="0.4"/>
<ellipse cx="107.46" cy="42.3826" rx="2.56127" ry="2.47834" fill="white" fill-opacity="0.4"/>
<ellipse cx="65.279" cy="55.9679" rx="6.53488" ry="4.34969" fill="#F86C65"/>
<ellipse cx="112.056" cy="55.9679" rx="6.53488" ry="4.34969" fill="#F86C65"/>
<path fill-rule="evenodd" clip-rule="evenodd" d="M125.559 87.3807C116.24 95.8508 103.698 101.039 89.904 101.039C61.1358 101.039 37.8145 78.473 37.8145 50.6362C37.8145 29.5014 51.258 11.4048 70.3221 3.91602C43.5561 7.95147 23.0742 30.3538 23.0742 57.3851C23.0742 87.273 48.1139 111.502 79.0018 111.502C98.4235 111.502 115.533 101.923 125.559 87.3807Z" fill="black" fill-opacity="0.2"/>
<path d="M133.368 57.3854C133.368 86.363 109.076 109.941 79.0019 109.941C48.9273 109.941 24.6355 86.363 24.6355 57.3854C24.6355 28.4078 48.9273 4.82985 79.0019 4.82985C109.076 4.82985 133.368 28.4078 133.368 57.3854Z" stroke="#645CAA" stroke-width="3.12259"/>
<circle cx="26.3085" cy="55.9677" r="13.2726" fill="#D0A2F7" stroke="#645CAA" stroke-width="3.12259"/>
<circle cx="10.9278" cy="12.0108" r="8.3548" fill="#D0A2F7" stroke="#645CAA" stroke-width="3.12259"/>
<line x1="12.4275" y1="18.8298" x2="19.6074" y2="43.6462" stroke="#645CAA" stroke-width="3.12259"/>
<circle cx="85.7707" cy="52.9514" r="36.3891" stroke="#645CAA" stroke-width="3.12259"/>
<ellipse cx="28.9193" cy="52.2999" rx="5.34701" ry="5.17389" fill="white" fill-opacity="0.4"/>
<ellipse cx="12.7392" cy="9.76983" rx="2.70406" ry="2.61651" fill="white" fill-opacity="0.4"/>
<mask id="path-18-outside-1_10553_10827" maskUnits="userSpaceOnUse" x="79.082" y="52.5273" width="18" height="13" fill="black">
<rect fill="white" x="79.082" y="52.5273" width="18" height="13"/>
<path fill-rule="evenodd" clip-rule="evenodd" d="M93.082 56.5273C92.7758 59.553 90.5291 61.9018 87.8031 61.9018C85.0771 61.9018 82.8305 59.553 82.5242 56.5273H93.082Z"/>
</mask>
<path fill-rule="evenodd" clip-rule="evenodd" d="M93.082 56.5273C92.7758 59.553 90.5291 61.9018 87.8031 61.9018C85.0771 61.9018 82.8305 59.553 82.5242 56.5273H93.082Z" fill="#F86C65"/>
<path d="M93.082 56.5273V53.4048C93.9649 53.4048 94.8065 53.7785 95.3986 54.4335C95.9906 55.0884 96.2777 55.9634 96.1887 56.8418L93.082 56.5273ZM82.5242 56.5273L79.4175 56.8418C79.3286 55.9634 79.6157 55.0884 80.2077 54.4335C80.7997 53.7785 81.6414 53.4048 82.5242 53.4048V56.5273ZM87.8031 58.7792C88.5832 58.7792 89.7934 58.01 89.9753 56.2129L96.1887 56.8418C95.7581 61.0959 92.475 65.0244 87.8031 65.0244V58.7792ZM85.631 56.2129C85.8129 58.01 87.023 58.7792 87.8031 58.7792V65.0244C83.1312 65.0244 79.8481 61.0959 79.4175 56.8418L85.631 56.2129ZM82.5242 53.4048H93.082V59.6499H82.5242V53.4048Z" fill="#645CAA" mask="url(#path-18-outside-1_10553_10827)"/>
</svg>
