<svg width="224" height="133" viewBox="0 0 224 133" fill="none" xmlns="http://www.w3.org/2000/svg">
<g filter="url(#filter0_d_10553_9750)">
<rect x="24" y="20" width="176" height="73" rx="24" fill="white"/>
<path d="M52.62 40.32H61.23V41.146H52.62V40.32ZM53.306 44.17H60.586V44.968H53.306V44.17ZM52.718 46.074H61.118V46.914H52.718V46.074ZM56.134 37.24H57.128V48.314H56.134V37.24ZM53.516 38.43H60.264V43.092H53.418V42.238H59.326V39.27H53.516V38.43ZM48.896 38.108H52.088V39.046H48.896V38.108ZM49.918 42.112H52.06V43.05H49.792L49.918 42.112ZM51.696 42.112H51.892L52.088 42.098L52.676 42.238C52.4613 44.226 52.06 45.8687 51.472 47.166C50.8933 48.4633 50.1653 49.448 49.288 50.12C49.2413 50.0453 49.1713 49.9613 49.078 49.868C48.9847 49.784 48.8867 49.6953 48.784 49.602C48.6813 49.518 48.5927 49.4573 48.518 49.42C49.3767 48.804 50.0767 47.908 50.618 46.732C51.1593 45.556 51.5187 44.086 51.696 42.322V42.112ZM49.876 44.198C50.1653 45.178 50.5387 45.9713 50.996 46.578C51.4533 47.1847 51.99 47.6513 52.606 47.978C53.222 48.3047 53.9127 48.5287 54.678 48.65C55.4433 48.762 56.2693 48.818 57.156 48.818C57.268 48.818 57.464 48.818 57.744 48.818C58.024 48.818 58.346 48.818 58.71 48.818C59.074 48.818 59.438 48.818 59.802 48.818C60.1753 48.818 60.5113 48.818 60.81 48.818C61.1087 48.818 61.328 48.8133 61.468 48.804C61.412 48.8787 61.356 48.972 61.3 49.084C61.2533 49.2053 61.2067 49.3267 61.16 49.448C61.1133 49.5693 61.0807 49.6767 61.062 49.77H60.334H57.142C56.1247 49.77 55.196 49.7 54.356 49.56C53.516 49.42 52.76 49.1633 52.088 48.79C51.416 48.4167 50.828 47.8847 50.324 47.194C49.8293 46.5033 49.4187 45.6027 49.092 44.492L49.876 44.198ZM49.358 43.498C49.3393 43.4233 49.302 43.3347 49.246 43.232C49.19 43.1293 49.134 43.022 49.078 42.91C49.022 42.798 48.9707 42.7093 48.924 42.644C49.0547 42.616 49.1993 42.5227 49.358 42.364C49.5167 42.2053 49.666 42.014 49.806 41.79C49.9087 41.65 50.0673 41.3933 50.282 41.02C50.506 40.6467 50.744 40.2127 50.996 39.718C51.248 39.214 51.472 38.71 51.668 38.206V38.136L52.06 37.954L52.732 38.388C52.3213 39.256 51.8873 40.0913 51.43 40.894C50.982 41.6873 50.5433 42.3687 50.114 42.938V42.952C50.114 42.952 50.0767 42.9707 50.002 43.008C49.9273 43.0453 49.8387 43.092 49.736 43.148C49.6333 43.204 49.5447 43.2647 49.47 43.33C49.3953 43.386 49.358 43.442 49.358 43.498ZM63.358 39.886H74.684V40.936H63.358V39.886ZM62.756 48.468H75.258V49.518H62.756V48.468ZM65.304 41.93L66.34 41.692C66.5267 42.3173 66.7133 42.9847 66.9 43.694C67.0867 44.4033 67.2547 45.094 67.404 45.766C67.5533 46.438 67.6653 47.0447 67.74 47.586L66.634 47.866C66.5593 47.3247 66.452 46.7133 66.312 46.032C66.172 45.3507 66.0133 44.6553 65.836 43.946C65.6587 43.2273 65.4813 42.5553 65.304 41.93ZM71.674 41.692L72.864 41.902C72.7053 42.4807 72.528 43.0873 72.332 43.722C72.1453 44.3567 71.9493 44.9913 71.744 45.626C71.5387 46.2513 71.3287 46.8487 71.114 47.418C70.9087 47.978 70.708 48.482 70.512 48.93L69.476 48.692C69.6813 48.244 69.8867 47.7307 70.092 47.152C70.2973 46.5733 70.498 45.9667 70.694 45.332C70.89 44.688 71.072 44.058 71.24 43.442C71.408 42.8167 71.5527 42.2333 71.674 41.692ZM67.992 37.436L69.014 37.156C69.154 37.5107 69.294 37.898 69.434 38.318C69.574 38.738 69.6813 39.0973 69.756 39.396L68.678 39.718C68.6127 39.41 68.5147 39.0413 68.384 38.612C68.2627 38.1827 68.132 37.7907 67.992 37.436ZM77.68 37.828H88.306V38.64H77.68V37.828ZM82.44 38.108H83.462V43.582H82.44V38.108ZM77.064 39.676H88.964V42.7H87.914V40.502H78.072V42.7H77.064V39.676ZM78.31 42.896C78.758 42.8493 79.2713 42.784 79.85 42.7C80.4287 42.616 81.0307 42.5273 81.656 42.434L81.698 43.106C81.1567 43.2087 80.6247 43.316 80.102 43.428C79.5793 43.5307 79.0893 43.6287 78.632 43.722L78.31 42.896ZM78.674 41.314L78.982 40.74C79.29 40.796 79.612 40.866 79.948 40.95C80.284 41.0247 80.606 41.1087 80.914 41.202C81.2313 41.2953 81.4927 41.3887 81.698 41.482L81.39 42.126C81.1847 42.0327 80.928 41.9347 80.62 41.832C80.312 41.7293 79.9853 41.6313 79.64 41.538C79.304 41.4447 78.982 41.37 78.674 41.314ZM86.892 40.67L87.354 41.272C87.0927 41.384 86.7987 41.4913 86.472 41.594C86.1453 41.6873 85.8187 41.776 85.492 41.86C85.1653 41.944 84.8667 42.014 84.596 42.07L84.218 41.538C84.4887 41.4727 84.7873 41.3887 85.114 41.286C85.4407 41.1833 85.7627 41.076 86.08 40.964C86.3973 40.852 86.668 40.754 86.892 40.67ZM84.05 42.994L84.302 42.35C84.666 42.3873 85.0487 42.4433 85.45 42.518C85.8607 42.5927 86.2527 42.6767 86.626 42.77C86.9993 42.8633 87.3167 42.952 87.578 43.036L87.34 43.764C87.088 43.6707 86.7707 43.5773 86.388 43.484C86.0147 43.3813 85.6227 43.288 85.212 43.204C84.8013 43.12 84.414 43.05 84.05 42.994ZM76.91 44.016H89.132V44.87H76.91V44.016ZM81.068 46.424H82.034V50.008H81.068V46.424ZM84.176 46.424H85.142V50.008H84.176V46.424ZM78.002 45.864H87.592V46.732H78.996V50.092H78.002V45.864ZM87.326 45.864H88.348V49.07C88.348 49.3127 88.32 49.4993 88.264 49.63C88.208 49.77 88.0913 49.8773 87.914 49.952C87.7367 50.036 87.5127 50.0827 87.242 50.092C86.9807 50.1107 86.6587 50.12 86.276 50.12C86.2573 49.9893 86.2107 49.84 86.136 49.672C86.0707 49.5133 86.0053 49.3687 85.94 49.238C86.22 49.2473 86.4673 49.252 86.682 49.252C86.906 49.252 87.0553 49.2473 87.13 49.238C87.214 49.238 87.2653 49.224 87.284 49.196C87.312 49.168 87.326 49.1213 87.326 49.056V45.864ZM82.468 44.324L83.602 44.38C83.4807 44.7533 83.35 45.122 83.21 45.486C83.07 45.8407 82.9393 46.1487 82.818 46.41L81.894 46.312C82.006 46.032 82.1133 45.7053 82.216 45.332C82.328 44.9493 82.412 44.6133 82.468 44.324ZM90.91 39.592H103.146V40.614H90.91V39.592ZM97.434 40.502C97.6953 41.3233 98.022 42.1213 98.414 42.896C98.8153 43.6613 99.2727 44.3753 99.786 45.038C100.309 45.7007 100.883 46.2887 101.508 46.802C102.133 47.3153 102.81 47.726 103.538 48.034C103.454 48.0993 103.361 48.188 103.258 48.3C103.165 48.4027 103.071 48.5147 102.978 48.636C102.894 48.748 102.824 48.8507 102.768 48.944C101.788 48.468 100.901 47.8193 100.108 46.998C99.324 46.1767 98.638 45.234 98.05 44.17C97.4713 43.0967 96.986 41.9533 96.594 40.74L97.434 40.502ZM101.634 41.244L102.544 41.888C102.245 42.2427 101.909 42.6113 101.536 42.994C101.172 43.3767 100.803 43.7407 100.43 44.086C100.057 44.4313 99.7067 44.7393 99.38 45.01L98.624 44.422C98.9413 44.1607 99.2867 43.848 99.66 43.484C100.033 43.1107 100.393 42.7327 100.738 42.35C101.093 41.958 101.391 41.5893 101.634 41.244ZM98.806 37.996L99.45 37.324C99.7393 37.464 100.047 37.632 100.374 37.828C100.701 38.0147 101.009 38.2013 101.298 38.388C101.597 38.5747 101.839 38.7473 102.026 38.906L101.368 39.662C101.181 39.494 100.943 39.312 100.654 39.116C100.365 38.9107 100.057 38.71 99.73 38.514C99.4127 38.318 99.1047 38.1453 98.806 37.996ZM91.638 41.986L92.436 41.44C92.7347 41.692 93.038 41.972 93.346 42.28C93.654 42.588 93.9387 42.896 94.2 43.204C94.4613 43.512 94.6667 43.792 94.816 44.044L93.962 44.674C93.822 44.422 93.626 44.1373 93.374 43.82C93.122 43.5027 92.842 43.1853 92.534 42.868C92.2353 42.5413 91.9367 42.2473 91.638 41.986ZM96.44 37.268H97.518V48.692C97.518 49.0653 97.4667 49.3407 97.364 49.518C97.2613 49.7047 97.0933 49.8447 96.86 49.938C96.6267 50.022 96.2953 50.078 95.866 50.106C95.446 50.134 94.928 50.148 94.312 50.148C94.284 49.9893 94.2327 49.8027 94.158 49.588C94.0833 49.3733 94.004 49.1867 93.92 49.028C94.4053 49.0467 94.8487 49.056 95.25 49.056C95.6607 49.056 95.936 49.056 96.076 49.056C96.2067 49.0467 96.3 49.0187 96.356 48.972C96.412 48.9253 96.44 48.832 96.44 48.692V37.268ZM90.602 47.754C91.0967 47.502 91.68 47.194 92.352 46.83C93.024 46.4567 93.738 46.0553 94.494 45.626C95.25 45.1967 95.992 44.772 96.72 44.352L97.042 45.234C96.3793 45.6447 95.7027 46.06 95.012 46.48C94.3307 46.8907 93.668 47.2873 93.024 47.67C92.3893 48.0433 91.8013 48.3887 91.26 48.706L90.602 47.754ZM110.496 37.436H111.63V48.664C111.63 49.0467 111.574 49.3313 111.462 49.518C111.35 49.7047 111.168 49.84 110.916 49.924C110.655 50.008 110.3 50.064 109.852 50.092C109.413 50.12 108.867 50.1293 108.214 50.12C108.195 50.0267 108.158 49.91 108.102 49.77C108.055 49.6393 108.004 49.5087 107.948 49.378C107.892 49.2473 107.836 49.1307 107.78 49.028C108.125 49.0373 108.457 49.042 108.774 49.042C109.091 49.0513 109.367 49.0513 109.6 49.042C109.843 49.042 110.011 49.042 110.104 49.042C110.244 49.0327 110.342 49.0047 110.398 48.958C110.463 48.902 110.496 48.804 110.496 48.664V37.436ZM113.87 41.006L114.878 40.628C115.298 41.2813 115.695 41.9813 116.068 42.728C116.441 43.4747 116.768 44.2073 117.048 44.926C117.337 45.6447 117.543 46.284 117.664 46.844L116.53 47.306C116.427 46.746 116.241 46.1067 115.97 45.388C115.709 44.66 115.391 43.918 115.018 43.162C114.654 42.3967 114.271 41.678 113.87 41.006ZM106.828 40.726L108.004 40.922C107.845 41.6033 107.649 42.322 107.416 43.078C107.183 43.8247 106.903 44.548 106.576 45.248C106.249 45.9387 105.871 46.5453 105.442 47.068C105.358 47.0027 105.255 46.9373 105.134 46.872C105.022 46.7973 104.901 46.7273 104.77 46.662C104.649 46.5967 104.541 46.5453 104.448 46.508C104.868 46.0133 105.232 45.4347 105.54 44.772C105.848 44.1093 106.109 43.428 106.324 42.728C106.548 42.0187 106.716 41.3513 106.828 40.726ZM124.468 46.116H125.518V50.12H124.468V46.116ZM119.764 47.04H129.858V47.824H120.786V49.896H119.764V47.04ZM129.466 47.04H130.502V48.888C130.502 49.1307 130.465 49.3173 130.39 49.448C130.325 49.5787 130.189 49.6767 129.984 49.742C129.769 49.8073 129.489 49.8447 129.144 49.854C128.799 49.8633 128.369 49.868 127.856 49.868C127.828 49.7373 127.781 49.602 127.716 49.462C127.651 49.322 127.581 49.1913 127.506 49.07C127.917 49.0793 128.276 49.084 128.584 49.084C128.892 49.0933 129.102 49.098 129.214 49.098C129.317 49.0887 129.382 49.0653 129.41 49.028C129.447 49 129.466 48.9487 129.466 48.874V47.04ZM125.126 38.5H131.286V39.312H125.126V38.5ZM119.4 37.996H124.594V38.612H119.4V37.996ZM119.176 40.544H124.776V41.16H119.176V40.544ZM118.896 39.27H125.028V39.886H118.896V39.27ZM125.784 39.928L126.484 39.536C126.745 39.7787 127.002 40.0587 127.254 40.376C127.506 40.684 127.693 40.95 127.814 41.174L127.086 41.622C126.965 41.3793 126.783 41.0993 126.54 40.782C126.297 40.4647 126.045 40.18 125.784 39.928ZM118.812 42.126C119.335 42.0887 119.932 42.0467 120.604 42C121.285 41.9533 122.009 41.8973 122.774 41.832C123.539 41.7667 124.309 41.7013 125.084 41.636L125.07 42.294C124.323 42.35 123.577 42.4153 122.83 42.49C122.083 42.5647 121.374 42.63 120.702 42.686C120.03 42.742 119.423 42.798 118.882 42.854L118.812 42.126ZM128.78 37.254H129.76V41.79C129.76 42.0233 129.727 42.2007 129.662 42.322C129.597 42.4433 129.471 42.5413 129.284 42.616C129.097 42.6813 128.859 42.7233 128.57 42.742C128.29 42.7513 127.931 42.756 127.492 42.756C127.464 42.6347 127.417 42.4993 127.352 42.35C127.287 42.2007 127.217 42.0747 127.142 41.972C127.478 41.9813 127.772 41.986 128.024 41.986C128.285 41.986 128.458 41.986 128.542 41.986C128.635 41.9767 128.696 41.958 128.724 41.93C128.761 41.902 128.78 41.846 128.78 41.762V37.254ZM121.458 37.24H122.438V39.676H121.458V37.24ZM121.458 39.69H122.438V42.322H121.458V39.69ZM121.374 45.08V45.71H128.752V45.08H121.374ZM121.374 43.82V44.45H128.752V43.82H121.374ZM120.422 43.176H129.732V46.368H120.422V43.176ZM124.804 42.182L125.798 42.406C125.677 42.63 125.56 42.84 125.448 43.036C125.336 43.232 125.229 43.4047 125.126 43.554L124.328 43.33C124.412 43.162 124.501 42.9707 124.594 42.756C124.687 42.532 124.757 42.3407 124.804 42.182ZM143.172 37.254L143.942 38.108C143.317 38.2947 142.598 38.4627 141.786 38.612C140.983 38.752 140.129 38.8733 139.224 38.976C138.328 39.0787 137.423 39.1627 136.508 39.228C135.603 39.2933 134.725 39.34 133.876 39.368C133.857 39.2373 133.82 39.0833 133.764 38.906C133.717 38.7193 133.671 38.57 133.624 38.458C134.455 38.4113 135.318 38.3553 136.214 38.29C137.11 38.2247 137.987 38.1453 138.846 38.052C139.705 37.9493 140.503 37.8327 141.24 37.702C141.987 37.5713 142.631 37.422 143.172 37.254ZM133.638 41.216H144.544V42.224H133.638V41.216ZM132.7 44.492H145.342V45.528H132.7V44.492ZM138.482 38.752H139.56V48.65C139.56 49.0233 139.499 49.2987 139.378 49.476C139.266 49.6627 139.079 49.798 138.818 49.882C138.547 49.966 138.174 50.0173 137.698 50.036C137.231 50.064 136.629 50.0733 135.892 50.064C135.864 49.9613 135.827 49.8447 135.78 49.714C135.733 49.5927 135.677 49.4667 135.612 49.336C135.556 49.2147 135.5 49.112 135.444 49.028C135.836 49.0373 136.209 49.042 136.564 49.042C136.919 49.042 137.227 49.042 137.488 49.042C137.749 49.042 137.936 49.042 138.048 49.042C138.207 49.0327 138.319 49 138.384 48.944C138.449 48.888 138.482 48.79 138.482 48.65V38.752Z" fill="#645CAA"/>
<path d="M55.808 67.808H61.088V68.912H55.808V67.808ZM55.536 75.376H61.216V76.464H55.536V75.376ZM55.024 70.72H61.792V77.28H60.576V71.808H56.208V77.328H55.024V70.72ZM58.896 63.04C59.216 63.712 59.616 64.3787 60.096 65.04C60.576 65.7013 61.104 66.304 61.68 66.848C62.256 67.3813 62.8373 67.8133 63.424 68.144C63.328 68.2293 63.2213 68.3307 63.104 68.448C62.9973 68.5547 62.8907 68.672 62.784 68.8C62.688 68.928 62.608 69.0453 62.544 69.152C61.9467 68.7467 61.36 68.24 60.784 67.632C60.208 67.0133 59.6747 66.3413 59.184 65.616C58.6933 64.88 58.2827 64.1333 57.952 63.376L58.896 63.04ZM58.08 62.592L59.232 62.912C58.7627 64.1813 58.112 65.3707 57.28 66.48C56.448 67.5787 55.4773 68.5227 54.368 69.312C54.304 69.2267 54.2187 69.1307 54.112 69.024C54.016 68.9173 53.9093 68.8107 53.792 68.704C53.6853 68.5973 53.584 68.512 53.488 68.448C54.192 67.9787 54.8427 67.4293 55.44 66.8C56.0373 66.1707 56.56 65.4987 57.008 64.784C57.4667 64.0587 57.824 63.328 58.08 62.592ZM49.776 64.08H53.36V73.024H49.776V71.904H52.224V65.2H49.776V64.08ZM49.184 64.08H50.304V74.56H49.184V64.08ZM75.888 64.208V65.936H77.696V64.208H75.888ZM73.248 64.208V65.936H75.04V64.208H73.248ZM70.688 64.208V65.936H72.4V64.208H70.688ZM69.664 63.296H78.784V66.864H69.664V63.296ZM74.88 66.96L75.824 67.2C75.5787 67.9573 75.264 68.704 74.88 69.44C74.5067 70.176 74.1173 70.8053 73.712 71.328C73.6587 71.2747 73.584 71.216 73.488 71.152C73.392 71.0773 73.2907 71.008 73.184 70.944C73.0773 70.8693 72.9867 70.8107 72.912 70.768C73.328 70.288 73.7013 69.712 74.032 69.04C74.3733 68.3573 74.656 67.664 74.88 66.96ZM74.96 68.704H79.12V69.632H74.96V77.264H74V69.568L74.752 68.704H74.96ZM76.464 69.152H77.392V76H76.464V69.152ZM74.592 71.024H78.912V71.904H74.592V71.024ZM74.592 73.248H78.912V74.128H74.592V73.248ZM74.464 75.504H79.216V76.464H74.464V75.504ZM71.872 71.152L72.608 70.992C72.7787 71.3973 72.9387 71.84 73.088 72.32C73.2373 72.8 73.344 73.2 73.408 73.52L72.64 73.744C72.576 73.4133 72.4693 73.0027 72.32 72.512C72.1813 72.0213 72.032 71.568 71.872 71.152ZM70.72 74.112L71.472 74.032C71.536 74.4693 71.5947 74.944 71.648 75.456C71.7013 75.9573 71.728 76.3947 71.728 76.768L70.944 76.896C70.944 76.512 70.9227 76.064 70.88 75.552C70.8373 75.0293 70.784 74.5493 70.72 74.112ZM69.44 73.92L70.208 74.096C70.0907 74.6293 69.9467 75.1787 69.776 75.744C69.6053 76.2987 69.44 76.768 69.28 77.152C69.2053 77.1093 69.088 77.0667 68.928 77.024C68.768 76.992 68.64 76.96 68.544 76.928C68.7147 76.512 68.88 76.0373 69.04 75.504C69.2 74.96 69.3333 74.432 69.44 73.92ZM69.408 70.72C69.3867 70.6347 69.3493 70.5067 69.296 70.336C69.2427 70.1547 69.1947 70.0053 69.152 69.888C69.248 69.8667 69.344 69.8133 69.44 69.728C69.536 69.6427 69.6373 69.5307 69.744 69.392C69.8187 69.3067 69.936 69.1413 70.096 68.896C70.256 68.64 70.4213 68.3413 70.592 68C70.7627 67.648 70.912 67.296 71.04 66.944L71.952 67.344C71.6853 67.8773 71.3813 68.4053 71.04 68.928C70.6987 69.4507 70.3627 69.8933 70.032 70.256V70.288C70.032 70.288 69.9787 70.3147 69.872 70.368C69.7653 70.4107 69.6587 70.464 69.552 70.528C69.456 70.592 69.408 70.656 69.408 70.72ZM69.408 70.72V70.032L69.92 69.776L72.048 69.696C72.016 69.824 71.9893 69.9627 71.968 70.112C71.9573 70.2507 71.9467 70.368 71.936 70.464C71.296 70.496 70.8053 70.528 70.464 70.56C70.1227 70.592 69.8773 70.6187 69.728 70.64C69.5893 70.6613 69.4827 70.688 69.408 70.72ZM69.344 73.552C69.3333 73.4667 69.296 73.3387 69.232 73.168C69.1787 72.9973 69.1307 72.8533 69.088 72.736C69.216 72.704 69.3547 72.624 69.504 72.496C69.6533 72.3573 69.8187 72.176 70 71.952C70.128 71.8133 70.336 71.552 70.624 71.168C70.912 70.784 71.2213 70.3307 71.552 69.808C71.8827 69.2853 72.176 68.7573 72.432 68.224L73.248 68.624C72.7787 69.456 72.256 70.2667 71.68 71.056C71.104 71.8453 70.528 72.528 69.952 73.104V73.136C69.952 73.136 69.8987 73.1573 69.792 73.2C69.696 73.2427 69.6 73.296 69.504 73.36C69.408 73.424 69.3547 73.488 69.344 73.552ZM69.344 73.552L69.328 72.848L69.808 72.576L72.912 72.256C72.9013 72.3627 72.896 72.4907 72.896 72.64C72.896 72.7787 72.9013 72.8907 72.912 72.976C72.1973 73.072 71.616 73.152 71.168 73.216C70.7307 73.28 70.3893 73.3333 70.144 73.376C69.8987 73.408 69.7173 73.44 69.6 73.472C69.4933 73.504 69.408 73.5307 69.344 73.552ZM72 73.936L72.688 73.776C72.8267 74.1813 72.96 74.6187 73.088 75.088C73.2267 75.5467 73.328 75.9413 73.392 76.272L72.656 76.464C72.6027 76.1227 72.512 75.7173 72.384 75.248C72.256 74.7787 72.128 74.3413 72 73.936ZM76.192 67.232L77.008 66.992C77.136 67.2907 77.264 67.616 77.392 67.968C77.52 68.3093 77.6107 68.6027 77.664 68.848L76.816 69.12C76.7627 68.864 76.672 68.56 76.544 68.208C76.4267 67.856 76.3093 67.5307 76.192 67.232ZM65.712 63.728H68.688V73.248H65.712V72.256H67.712V64.736H65.712V63.728ZM65.04 63.728H66V74.832H65.04V63.728ZM87.552 70.368C87.1253 69.9627 86.7093 69.6427 86.304 69.408C85.9093 69.1733 85.4187 69.056 84.832 69.056C84.2027 69.056 83.6213 69.2533 83.088 69.648C82.5653 70.032 82.1387 70.5387 81.808 71.168L80.672 70.56C81.1733 69.6427 81.7813 68.9493 82.496 68.48C83.2213 68 84.0053 67.76 84.848 67.76C85.5733 67.76 86.2133 67.9093 86.768 68.208C87.3333 68.496 87.8933 68.9173 88.448 69.472C88.8747 69.8773 89.2907 70.1973 89.696 70.432C90.1013 70.6667 90.592 70.784 91.168 70.784C91.7973 70.784 92.3733 70.592 92.896 70.208C93.4293 69.8133 93.8613 69.3013 94.192 68.672L95.328 69.28C94.8267 70.1973 94.2133 70.896 93.488 71.376C92.7733 71.8453 91.9947 72.08 91.152 72.08C90.4373 72.08 89.7973 71.936 89.232 71.648C88.6667 71.3493 88.1067 70.9227 87.552 70.368ZM97.92 63.232H110.064V64.16H97.92V63.232ZM103.36 63.552H104.528V69.808H103.36V63.552ZM97.216 65.344H110.816V68.8H109.616V66.288H98.368V68.8H97.216V65.344ZM98.64 69.024C99.152 68.9707 99.7387 68.896 100.4 68.8C101.061 68.704 101.749 68.6027 102.464 68.496L102.512 69.264C101.893 69.3813 101.285 69.504 100.688 69.632C100.091 69.7493 99.5307 69.8613 99.008 69.968L98.64 69.024ZM99.056 67.216L99.408 66.56C99.76 66.624 100.128 66.704 100.512 66.8C100.896 66.8853 101.264 66.9813 101.616 67.088C101.979 67.1947 102.277 67.3013 102.512 67.408L102.16 68.144C101.925 68.0373 101.632 67.9253 101.28 67.808C100.928 67.6907 100.555 67.5787 100.16 67.472C99.776 67.3653 99.408 67.28 99.056 67.216ZM108.448 66.48L108.976 67.168C108.677 67.296 108.341 67.4187 107.968 67.536C107.595 67.6427 107.221 67.744 106.848 67.84C106.475 67.936 106.133 68.016 105.824 68.08L105.392 67.472C105.701 67.3973 106.043 67.3013 106.416 67.184C106.789 67.0667 107.157 66.944 107.52 66.816C107.883 66.688 108.192 66.576 108.448 66.48ZM105.2 69.136L105.488 68.4C105.904 68.4427 106.341 68.5067 106.8 68.592C107.269 68.6773 107.717 68.7733 108.144 68.88C108.571 68.9867 108.933 69.088 109.232 69.184L108.96 70.016C108.672 69.9093 108.309 69.8027 107.872 69.696C107.445 69.5787 106.997 69.472 106.528 69.376C106.059 69.28 105.616 69.2 105.2 69.136ZM97.04 70.304H111.008V71.28H97.04V70.304ZM101.792 73.056H102.896V77.152H101.792V73.056ZM105.344 73.056H106.448V77.152H105.344V73.056ZM98.288 72.416H109.248V73.408H99.424V77.248H98.288V72.416ZM108.944 72.416H110.112V76.08C110.112 76.3573 110.08 76.5707 110.016 76.72C109.952 76.88 109.819 77.0027 109.616 77.088C109.413 77.184 109.157 77.2373 108.848 77.248C108.549 77.2693 108.181 77.28 107.744 77.28C107.723 77.1307 107.669 76.96 107.584 76.768C107.509 76.5867 107.435 76.4213 107.36 76.272C107.68 76.2827 107.963 76.288 108.208 76.288C108.464 76.288 108.635 76.2827 108.72 76.272C108.816 76.272 108.875 76.256 108.896 76.224C108.928 76.192 108.944 76.1387 108.944 76.064V72.416ZM103.392 70.656L104.688 70.72C104.549 71.1467 104.4 71.568 104.24 71.984C104.08 72.3893 103.931 72.7413 103.792 73.04L102.736 72.928C102.864 72.608 102.987 72.2347 103.104 71.808C103.232 71.3707 103.328 70.9867 103.392 70.656ZM112.864 71.712H127.152V72.736H112.864V71.712ZM113.104 63.248H126.88V64.32H113.104V63.248ZM123.44 70.768L124.608 71.088C124.245 72.1333 123.749 73.0187 123.12 73.744C122.501 74.4693 121.733 75.072 120.816 75.552C119.899 76.032 118.816 76.4053 117.568 76.672C116.331 76.9493 114.901 77.152 113.28 77.28C113.237 77.1093 113.173 76.9227 113.088 76.72C113.003 76.528 112.912 76.3627 112.816 76.224C114.363 76.1387 115.723 75.9787 116.896 75.744C118.08 75.5093 119.099 75.1787 119.952 74.752C120.816 74.3253 121.531 73.7867 122.096 73.136C122.672 72.4853 123.12 71.696 123.44 70.768ZM114.864 74.624L115.808 73.824C116.843 73.984 117.877 74.1653 118.912 74.368C119.947 74.5707 120.949 74.784 121.92 75.008C122.891 75.232 123.797 75.4613 124.64 75.696C125.483 75.9307 126.229 76.16 126.88 76.384L125.776 77.248C124.965 76.9387 123.989 76.624 122.848 76.304C121.707 75.9947 120.459 75.696 119.104 75.408C117.749 75.12 116.336 74.8587 114.864 74.624ZM117.472 63.648H118.608V69.248H117.472V63.648ZM121.216 63.648H122.352V69.248H121.216V63.648ZM115.04 66.672V68.848H125.024V66.672H115.04ZM113.904 65.68H126.208V69.824H113.904V65.68ZM114.864 74.624C115.216 74.2187 115.584 73.7547 115.968 73.232C116.363 72.7093 116.731 72.1707 117.072 71.616C117.424 71.0507 117.723 70.5173 117.968 70.016L119.168 70.288C118.912 70.7893 118.613 71.3067 118.272 71.84C117.941 72.3733 117.595 72.8853 117.232 73.376C116.88 73.856 116.56 74.272 116.272 74.624H114.864ZM135.392 72.704H136.592V77.28H135.392V72.704ZM130.016 73.76H141.552V74.656H131.184V77.024H130.016V73.76ZM141.104 73.76H142.288V75.872C142.288 76.1493 142.245 76.3627 142.16 76.512C142.085 76.6613 141.931 76.7733 141.696 76.848C141.451 76.9227 141.131 76.9653 140.736 76.976C140.341 76.9867 139.851 76.992 139.264 76.992C139.232 76.8427 139.179 76.688 139.104 76.528C139.029 76.368 138.949 76.2187 138.864 76.08C139.333 76.0907 139.744 76.096 140.096 76.096C140.448 76.1067 140.688 76.112 140.816 76.112C140.933 76.1013 141.008 76.0747 141.04 76.032C141.083 76 141.104 75.9413 141.104 75.856V73.76ZM136.144 64H143.184V64.928H136.144V64ZM129.6 63.424H135.536V64.128H129.6V63.424ZM129.344 66.336H135.744V67.04H129.344V66.336ZM129.024 64.88H136.032V65.584H129.024V64.88ZM136.896 65.632L137.696 65.184C137.995 65.4613 138.288 65.7813 138.576 66.144C138.864 66.496 139.077 66.8 139.216 67.056L138.384 67.568C138.245 67.2907 138.037 66.9707 137.76 66.608C137.483 66.2453 137.195 65.92 136.896 65.632ZM128.928 68.144C129.525 68.1013 130.208 68.0533 130.976 68C131.755 67.9467 132.581 67.8827 133.456 67.808C134.331 67.7333 135.211 67.6587 136.096 67.584L136.08 68.336C135.227 68.4 134.373 68.4747 133.52 68.56C132.667 68.6453 131.856 68.72 131.088 68.784C130.32 68.848 129.627 68.912 129.008 68.976L128.928 68.144ZM140.32 62.576H141.44V67.76C141.44 68.0267 141.403 68.2293 141.328 68.368C141.253 68.5067 141.109 68.6187 140.896 68.704C140.683 68.7787 140.411 68.8267 140.08 68.848C139.76 68.8587 139.349 68.864 138.848 68.864C138.816 68.7253 138.763 68.5707 138.688 68.4C138.613 68.2293 138.533 68.0853 138.448 67.968C138.832 67.9787 139.168 67.984 139.456 67.984C139.755 67.984 139.952 67.984 140.048 67.984C140.155 67.9733 140.224 67.952 140.256 67.92C140.299 67.888 140.32 67.824 140.32 67.728V62.576ZM131.952 62.56H133.072V65.344H131.952V62.56ZM131.952 65.36H133.072V68.368H131.952V65.36ZM131.856 71.52V72.24H140.288V71.52H131.856ZM131.856 70.08V70.8H140.288V70.08H131.856ZM130.768 69.344H141.408V72.992H130.768V69.344ZM135.776 68.208L136.912 68.464C136.773 68.72 136.64 68.96 136.512 69.184C136.384 69.408 136.261 69.6053 136.144 69.776L135.232 69.52C135.328 69.328 135.429 69.1093 135.536 68.864C135.643 68.608 135.723 68.3893 135.776 68.208ZM149.968 65.808H159.376V66.96H149.968V65.808ZM151.44 66.352H152.64V74.416C152.64 74.8213 152.715 75.1093 152.864 75.28C153.013 75.4507 153.28 75.536 153.664 75.536C153.781 75.536 153.963 75.536 154.208 75.536C154.453 75.536 154.731 75.536 155.04 75.536C155.349 75.536 155.659 75.536 155.968 75.536C156.288 75.536 156.571 75.536 156.816 75.536C157.072 75.536 157.253 75.536 157.36 75.536C157.616 75.536 157.893 75.5253 158.192 75.504C158.491 75.4827 158.731 75.456 158.912 75.424C158.923 75.52 158.933 75.6427 158.944 75.792C158.965 75.9413 158.987 76.0853 159.008 76.224C159.029 76.3627 159.045 76.48 159.056 76.576C158.917 76.608 158.688 76.6293 158.368 76.64C158.048 76.6613 157.712 76.672 157.36 76.672C157.243 76.672 157.051 76.672 156.784 76.672C156.528 76.672 156.24 76.672 155.92 76.672C155.611 76.672 155.301 76.672 154.992 76.672C154.683 76.672 154.411 76.672 154.176 76.672C153.952 76.672 153.808 76.672 153.744 76.672C153.168 76.672 152.709 76.5973 152.368 76.448C152.027 76.3093 151.787 76.0747 151.648 75.744C151.509 75.4027 151.44 74.944 151.44 74.368V66.352ZM146.96 62.56H148.128V77.264H146.96V62.56ZM145.312 65.648L146.224 65.776C146.203 66.2133 146.155 66.6933 146.08 67.216C146.016 67.7387 145.931 68.256 145.824 68.768C145.717 69.2693 145.589 69.712 145.44 70.096L144.512 69.76C144.651 69.408 144.773 68.9973 144.88 68.528C144.987 68.048 145.077 67.5573 145.152 67.056C145.227 66.544 145.28 66.0747 145.312 65.648ZM148.352 65.504L149.136 65.168C149.296 65.4773 149.456 65.8133 149.616 66.176C149.776 66.5387 149.925 66.8853 150.064 67.216C150.213 67.536 150.325 67.8133 150.4 68.048L149.568 68.496C149.483 68.24 149.371 67.9413 149.232 67.6C149.104 67.248 148.96 66.8907 148.8 66.528C148.651 66.1547 148.501 65.8133 148.352 65.504ZM153.632 62.832L154.8 62.416C154.949 62.6933 155.104 62.9973 155.264 63.328C155.435 63.648 155.595 63.9573 155.744 64.256C155.893 64.5547 156.011 64.816 156.096 65.04L154.88 65.552C154.795 65.3173 154.683 65.0453 154.544 64.736C154.405 64.4267 154.256 64.1067 154.096 63.776C153.936 63.4347 153.781 63.12 153.632 62.832ZM161.776 64.096H165.44V72.72H161.776V71.6H164.336V65.216H161.776V64.096ZM161.168 64.096H162.24V74.208H161.168V64.096ZM167.248 65.84H174.272V66.816H167.248V65.84ZM167.248 68.304H174.272V69.296H167.248V68.304ZM166.592 70.816H174.224V71.856H166.592V70.816ZM166.592 63.296H174.576V64.352H167.728V71.376H166.592V63.296ZM170.176 63.792H171.296V71.312H170.176V63.792ZM173.952 70.816H175.056C175.056 70.816 175.051 70.88 175.04 71.008C175.04 71.136 175.035 71.2427 175.024 71.328C174.96 72.5333 174.891 73.5093 174.816 74.256C174.752 75.0027 174.672 75.5787 174.576 75.984C174.48 76.3787 174.357 76.656 174.208 76.816C174.08 76.9653 173.941 77.0667 173.792 77.12C173.653 77.184 173.477 77.2267 173.264 77.248C173.083 77.2693 172.832 77.2747 172.512 77.264C172.203 77.264 171.867 77.2587 171.504 77.248C171.493 77.088 171.461 76.9067 171.408 76.704C171.355 76.512 171.285 76.3413 171.2 76.192C171.552 76.224 171.867 76.2453 172.144 76.256C172.432 76.2667 172.64 76.272 172.768 76.272C172.885 76.272 172.981 76.2613 173.056 76.24C173.141 76.2187 173.216 76.1707 173.28 76.096C173.376 75.9893 173.461 75.76 173.536 75.408C173.621 75.0453 173.696 74.512 173.76 73.808C173.824 73.104 173.888 72.176 173.952 71.024V70.816ZM166.336 72.624L167.248 72.896C167.184 73.3227 167.093 73.7707 166.976 74.24C166.869 74.7093 166.731 75.1573 166.56 75.584C166.389 76 166.187 76.368 165.952 76.688L165.072 76.224C165.296 75.936 165.493 75.5947 165.664 75.2C165.835 74.7947 165.973 74.3733 166.08 73.936C166.197 73.488 166.283 73.0507 166.336 72.624ZM167.984 72.896L168.832 72.768C168.981 73.2693 169.088 73.8133 169.152 74.4C169.227 74.976 169.259 75.4773 169.248 75.904L168.336 76.048C168.368 75.632 168.352 75.1307 168.288 74.544C168.224 73.9467 168.123 73.3973 167.984 72.896ZM169.76 72.768L170.528 72.528C170.741 72.944 170.933 73.408 171.104 73.92C171.285 74.432 171.408 74.8693 171.472 75.232L170.64 75.52C170.587 75.136 170.475 74.688 170.304 74.176C170.133 73.664 169.952 73.1947 169.76 72.768ZM171.504 72.496L172.224 72.224C172.448 72.5547 172.661 72.9227 172.864 73.328C173.077 73.7227 173.227 74.0693 173.312 74.368L172.56 74.688C172.485 74.3787 172.347 74.0213 172.144 73.616C171.941 73.2107 171.728 72.8373 171.504 72.496Z" fill="#1E1E1E"/>
<path d="M168 105L160 93L176 93L168 105Z" fill="white"/>
</g>
<defs>
<filter id="filter0_d_10553_9750" x="0" y="0" width="224" height="133" filterUnits="userSpaceOnUse" color-interpolation-filters="sRGB">
<feFlood flood-opacity="0" result="BackgroundImageFix"/>
<feColorMatrix in="SourceAlpha" type="matrix" values="0 0 0 0 0 0 0 0 0 0 0 0 0 0 0 0 0 0 127 0" result="hardAlpha"/>
<feOffset dy="4"/>
<feGaussianBlur stdDeviation="12"/>
<feComposite in2="hardAlpha" operator="out"/>
<feColorMatrix type="matrix" values="0 0 0 0 0.815686 0 0 0 0 0.635294 0 0 0 0 0.968627 0 0 0 0.4 0"/>
<feBlend mode="normal" in2="BackgroundImageFix" result="effect1_dropShadow_10553_9750"/>
<feBlend mode="normal" in="SourceGraphic" in2="effect1_dropShadow_10553_9750" result="shape"/>
</filter>
</defs>
</svg>
