<svg xmlns="http://www.w3.org/2000/svg" viewBox="0 0 4680 3120" id="online-course">
  <defs>
    <clipPath id="clip-path">
      <path d="m3243.75 1048.18 33.16 277.53h-151.85l-22.69-82.04-13.97 82.04h-162.32l47.12-247.86 270.55-29.67z" style="fill:none"></path>
    </clipPath>
    <clipPath id="clip-path-2">
      <path d="M2801.71 720s7.86-24-.43-37.53-37.53-31.41-41.9-27.49 11.79 25.75 11.79 25.75-21.82 21.82-8.3 45.82S2793 753.2 2793 753.2Z" style="fill:none"></path>
    </clipPath>
    <clipPath id="clip-path-3">
      <path d="M3159.12 485.63s-6.37-25.94-35-24.58-48.24 6.37-53.25 8.19 10 6.37 10 6.37-45.05 3.65-52.33 13.66 10.46 20.93 6.37 23.66-5.46 10-4.55 16.39 13.19 15 15 15.92 121.51 32.32 121.51 32.32 57.78-73.27-7.75-91.93Z" style="fill:none"></path>
    </clipPath>
    <clipPath id="clip-path-4">
      <path d="M3044.33 538.94v47.56a49.46 49.46 0 0 0 48.11 49.28l-1.7 14.61-.59 5.06s17.89 17.89 24.44 20.07 39.27-15.71 38.4-26.18c-.65-7.75-1.3-35.33-1.59-49.15a25.66 25.66 0 0 0 14.61-4.72c10.68-7.43 14.1-21 7.63-30.28s-20.06-10.75-30.69-3.61v-6l-7.85-22.78s-22.7 1.31-32.73 2.62-.87-5.67-.87-5.67-32.73 3.49-42.77.87a97.65 97.65 0 0 0-11.43-2.39 20.83 20.83 0 0 0-2.97 10.71Z" style="fill:none"></path>
    </clipPath>
    <clipPath id="clip-path-5">
      <path d="M3074.44 597.41s15.27 2.62 26.18 0-2.62 18.33-14.83 16.59-11.35-16.59-11.35-16.59Z" style="fill:none"></path>
    </clipPath>
    <clipPath id="clip-path-6">
      <path d="m3130.88 688.61-5.24 15.71 15.13 177.46-17.46 66.33L3085.5 887l19.2-182.11-3.5-18s9.9-11.06 14.55-8.73 15.13 10.45 15.13 10.45Z" style="fill:none"></path>
    </clipPath>
    <clipPath id="clip-path-7">
      <path d="M2735.82 752.62s76.8 185 147.79 169.89q10.53-2.26 19.65-5.12c50.53-15.64 70.78-42.76 74.12-47.65.33-.51.48-.77.48-.77l-10 110-1.8 20-10.35 114.33 302.54 3.49s35.21-387.5 17.75-417.74c-6.65-11.52-33.24-19.47-49.16-23.28-25.9-6.16-51.2-12.8-51.2-12.8s-40.64 171.1-55.82 236.26-51.19-238.54-51.19-238.54-34.92 7.16-58.19 15.12c-8.74 3-21.68 17.88-26.76 23.28-18.63 19.77-101.24 102.4-101.24 102.4l-69.82-85Z" style="fill:none"></path>
    </clipPath>
    <clipPath id="clip-path-8">
      <path d="m3257.71 945.2-82 144.87 83.78 48.87s114.33-135.27 115.2-192-64.58-272.29-121.31-257.45-21.23 97.16-9 159.13 13.33 96.58 13.33 96.58Z" style="fill:none"></path>
    </clipPath>
    <clipPath id="clip-path-9">
      <path d="M3176.55 1089.2s-13.09-.88-21.82 19.2-34.91 44.51-23.56 44.51a33.87 33.87 0 0 0 19.2-6.11s-5.24 17.45.87 20.94 16.58-2.62 25.31 7 28.8 13.09 28.8 13.09 22.69-1.75 24.44-15.71 7.85-48 7.85-48Z" style="fill:none"></path>
    </clipPath>
    <clipPath id="clip-path-10">
      <path d="M2304 2736c-10.26 15.39-212.85-30.77-282.1-59-2.18-26.26 3.57-79.14 10.88-131.13 65.24 22.78 161.66 49.6 230.7 39l-13.33 81.91s64.08 53.87 53.85 69.22Z" style="fill:none"></path>
    </clipPath>
    <clipPath id="clip-path-11">
      <path d="M1627.29 1747.73s-61.54 257.72 34.62 311.57 319.27 65.39 319.27 65.39l215.08 434.4s142.34-228.24 307.74-151.31c-92.31-203.87-222.79-502.34-338.19-529.27s-342.34-92.32-342.34-92.32Z" style="fill:none"></path>
    </clipPath>
    <clipPath id="clip-path-12">
      <path d="M2636.46 2581.26c-6.82 18.8-165.82 135-222.24 135-7.41 0-15.9-3.41-25.08-9.36-30.72-19.9-69-68.06-99.4-110.81 31.29-52.52 83-127.59 181.75-130.28l48.72 89.76s56.88 3.16 91.17 11.08c16.13 3.79 27.26 8.58 25.08 14.61Z" style="fill:none"></path>
    </clipPath>
    <clipPath id="clip-path-13">
      <path d="m2211.32 1507.51-70.25 56.49-86.74 69.75-19.42 171.54-424-8.09-82.54-233s-4.83-198.27 69.6-274.32 225-85 225-85 119.85 15.38 197.44 58.26c92.18 50.96 190.91 244.37 190.91 244.37Z" style="fill:none"></path>
    </clipPath>
    <clipPath id="clip-path-14">
      <path d="M1820.75 977.55c-.34-4.17-13.08-57.69 57.12-65.62s102.59 13.88 90.43 25.24 31.69 1.12 56.9 28.94-4.62 34.2-4.62 34.2 35.38 16.13 28.24 40.66-40.82 29.23-40.82 29.23l-201.23 60.31s-49.09-45.14-36.65-101.69 50.63-51.27 50.63-51.27Z" style="fill:none"></path>
    </clipPath>
    <clipPath id="clip-path-15">
      <path d="M1933.3 1217.22c-3.57-.56-12.78-1.62-17.59-3.86l-.26-.08a.66.66 0 0 0-.29-.11h-.06a2.28 2.28 0 0 0-2.56 2c-1.49 13.32.55 28.62 1.66 35.47.37 2.28.64 3.62.64 3.62s-9.79 46.72-50.15 42.11-67.64-69.79-67.64-69.79L1825 1159c-1.43-.11-2.86-.25-4.33-.5-21-3.47-35.45-21.74-32.3-40.81s22.73-31.72 43.72-28.25a41.86 41.86 0 0 1 12.28 4.07c0-.33 0-.7.06-1.07.11-1.62.25-3.2.42-4.77 9.57-6.57 35.58-27 42.71-60 36.55 21.46 75.91 19.77 75.91 19.77l-19.64-22.59c2.38 2.18 21.9 18.48 75.32 15.32 10.05 18.69 14.82 45.29 13.27 69-3.96 60.7-45.42 116.69-99.12 108.05Z" style="fill:none"></path>
    </clipPath>
    <clipPath id="clip-path-16">
      <path d="M1531.58 1531.78s97.1-17.8 148.89 25.9c-11.33 80.92-14.56 87.39-14.56 87.39s225-51.79 291.31-30.75 97.11 116.53 97.11 116.53l-119.76 1.61-6.48-19.42s-27.51 4.86-55 1.62-234.68 85.78-320.45 55c-65.74-23.53-21.06-237.88-21.06-237.88Z" style="fill:none"></path>
    </clipPath>
    <clipPath id="clip-path-17">
      <path d="m2725.98 1412.84-76.88 335.01h-737.2v-19.42l224.97-29.13 80.91-301.03h493.64l14.56 14.57z" style="fill:none"></path>
    </clipPath>
  </defs>
  <g id="_05">
    <ellipse cx="1773.28" cy="2653.66" rx="637.32" ry="80.12" style="fill:#f2dff7"></ellipse>
    <path d="M3219.15 622.23c-222.09-285.33-628.68-346.82-925.22-139.94L1850 792a679.64 679.64 0 0 1-182.29 90.09L1519 929.56c-369.42 117.87-565.52 520.43-430.61 884 112.53 303.24 423.17 485.17 742.7 435l309.51-48.62a679.49 679.49 0 0 1 269.12 11.75l336.61 83.49a679.57 679.57 0 0 0 644.92-179.78c42.71-42.83 87.71-88 132.85-133.25 241.78-242.51 265.4-627 55.09-897.23-115.26-148.18-242.93-312.22-360.04-462.69Z" style="fill:#f2dff7"></path>
    <circle cx="2690.03" cy="1427.34" r="34.59" style="fill:#fff"></circle>
    <circle cx="2790.16" cy="1427.34" r="34.59" style="fill:#fff"></circle>
    <circle cx="2890.3" cy="1427.34" r="34.59" style="fill:#fff" transform="rotate(-10.9 2890.485 1427.417)"></circle>
    <circle cx="2990.43" cy="1427.34" r="34.59" style="fill:#fff" transform="rotate(-10.9 2990.648 1427.402)"></circle>
    <circle cx="3090.57" cy="1427.34" r="34.59" style="fill:#fff" transform="rotate(-10.9 3090.753 1427.433)"></circle>
    <path d="M3190.7 1392.75a34.59 34.59 0 1 0 34.59 34.59 34.59 34.59 0 0 0-34.59-34.59ZM3290.83 1392.75a34.59 34.59 0 1 0 34.6 34.59 34.59 34.59 0 0 0-34.6-34.59Z" style="fill:#fff"></path>
    <circle cx="2690.03" cy="1522.01" r="34.59" style="fill:#fff"></circle>
    <circle cx="2790.16" cy="1522.01" r="34.59" style="fill:#fff"></circle>
    <circle cx="2890.3" cy="1522.01" r="34.59" style="fill:#fff" transform="rotate(-16.85 2889.389 1521.699)"></circle>
    <circle cx="2990.43" cy="1522.01" r="34.59" style="fill:#fff" transform="rotate(-16.85 2989.47 1521.688)"></circle>
    <circle cx="3090.57" cy="1522.01" r="34.59" style="fill:#fff" transform="rotate(-16.85 3089.586 1521.682)"></circle>
    <path d="M3190.7 1487.42a34.59 34.59 0 1 0 34.59 34.59 34.59 34.59 0 0 0-34.59-34.59ZM3290.83 1487.42a34.59 34.59 0 1 0 34.6 34.59 34.59 34.59 0 0 0-34.6-34.59Z" style="fill:#fff"></path>
    <circle cx="2690.03" cy="1616.68" r="34.59" style="fill:#fff"></circle>
    <circle cx="2790.16" cy="1616.68" r="34.59" style="fill:#fff"></circle>
    <circle cx="2890.3" cy="1616.68" r="34.59" style="fill:#fff" transform="rotate(-9.22 2889.474 1616.287)"></circle>
    <circle cx="2990.43" cy="1616.68" r="34.59" style="fill:#fff" transform="rotate(-9.22 2989.581 1616.308)"></circle>
    <circle cx="3090.57" cy="1616.68" r="34.59" style="fill:#fff" transform="rotate(-9.22 3089.688 1616.33)"></circle>
    <path d="M3190.7 1582.09a34.6 34.6 0 1 0 34.59 34.59 34.59 34.59 0 0 0-34.59-34.59ZM3290.83 1582.09a34.6 34.6 0 1 0 34.6 34.59 34.59 34.59 0 0 0-34.6-34.59Z" style="fill:#fff"></path>
    <circle cx="2690.03" cy="1711.36" r="34.59" style="fill:#fff"></circle>
    <circle cx="2790.16" cy="1711.36" r="34.59" style="fill:#fff"></circle>
    <circle cx="2890.3" cy="1711.36" r="34.59" style="fill:#fff" transform="rotate(-9.22 2889.454 1710.965)"></circle>
    <circle cx="2990.43" cy="1711.36" r="34.59" style="fill:#fff" transform="rotate(-9.22 2989.561 1710.986)"></circle>
    <circle cx="3090.57" cy="1711.36" r="34.59" style="fill:#fff" transform="rotate(-9.22 3089.674 1710.944)"></circle>
    <path d="M3190.7 1676.77a34.59 34.59 0 1 0 34.59 34.59 34.59 34.59 0 0 0-34.59-34.59ZM3290.83 1676.77a34.59 34.59 0 1 0 34.6 34.59 34.59 34.59 0 0 0-34.6-34.59Z" style="fill:#fff"></path>
    <circle cx="2690.03" cy="1806.03" r="34.59" style="fill:#fff"></circle>
    <circle cx="2790.16" cy="1806.03" r="34.59" style="fill:#fff"></circle>
    <circle cx="2890.3" cy="1806.03" r="34.59" style="fill:#fff" transform="rotate(-9.22 2889.502 1805.585)"></circle>
    <circle cx="2990.43" cy="1806.03" r="34.59" style="fill:#fff" transform="rotate(-9.22 2989.609 1805.606)"></circle>
    <circle cx="3090.57" cy="1806.03" r="34.59" style="fill:#fff" transform="rotate(-9.22 3089.654 1805.622)"></circle>
    <path d="M3190.7 1771.44a34.59 34.59 0 1 0 34.59 34.59 34.59 34.59 0 0 0-34.59-34.59ZM3290.83 1771.44a34.59 34.59 0 1 0 34.6 34.59 34.59 34.59 0 0 0-34.6-34.59Z" style="fill:#fff"></path>
    <circle cx="2690.03" cy="1900.7" r="34.59" style="fill:#fff"></circle>
    <circle cx="2790.16" cy="1900.7" r="34.59" style="fill:#fff"></circle>
    <circle cx="2890.3" cy="1900.7" r="34.59" style="fill:#fff" transform="rotate(-9.22 2889.482 1900.262)"></circle>
    <circle cx="2990.43" cy="1900.7" r="34.59" style="fill:#fff" transform="rotate(-9.22 2989.589 1900.283)"></circle>
    <circle cx="3090.57" cy="1900.7" r="34.59" style="fill:#fff" transform="rotate(-9.22 3089.7 1900.242)"></circle>
    <path d="M3190.7 1866.11a34.59 34.59 0 1 0 34.59 34.59 34.59 34.59 0 0 0-34.59-34.59ZM3290.83 1866.11a34.59 34.59 0 1 0 34.6 34.59 34.59 34.59 0 0 0-34.6-34.59Z" style="fill:#fff"></path>
    <circle cx="2690.03" cy="1995.38" r="34.59" style="fill:#fff"></circle>
    <circle cx="2790.16" cy="1995.38" r="34.59" style="fill:#fff"></circle>
    <circle cx="2890.3" cy="1995.38" r="34.59" style="fill:#fff" transform="rotate(-13.28 2890.875 1995.71)"></circle>
    <circle cx="2990.43" cy="1995.38" r="34.59" style="fill:#fff" transform="rotate(-13.28 2991.045 1995.704)"></circle>
    <circle cx="3090.57" cy="1995.38" r="34.59" style="fill:#fff" transform="rotate(-13.28 3091.216 1995.698)"></circle>
    <path d="M3190.7 1960.78a34.6 34.6 0 1 0 34.59 34.6 34.6 34.6 0 0 0-34.59-34.6ZM3290.83 1960.78a34.6 34.6 0 1 0 34.6 34.6 34.6 34.6 0 0 0-34.6-34.6Z" style="fill:#fff"></path>
    <circle cx="988.39" cy="839.94" r="30.84" style="fill:#fff"></circle>
    <circle cx="1077.65" cy="839.94" r="30.84" style="fill:#fff" transform="rotate(-37.98 1077.71 839.962)"></circle>
    <circle cx="1166.91" cy="839.94" r="30.84" style="fill:#fff"></circle>
    <circle cx="1256.17" cy="839.94" r="30.84" style="fill:#fff" transform="rotate(-14.87 1256.407 840.038)"></circle>
    <circle cx="1345.44" cy="839.94" r="30.84" style="fill:#fff"></circle>
    <circle cx="1434.7" cy="839.94" r="30.84" style="fill:#fff" transform="rotate(-37.98 1434.786 839.962)"></circle>
    <circle cx="1523.96" cy="839.94" r="30.84" style="fill:#fff" transform="rotate(-31.8 1512.927 831.923)"></circle>
    <circle cx="988.39" cy="924.34" r="30.84" style="fill:#fff"></circle>
    <circle cx="1077.65" cy="924.34" r="30.84" style="fill:#fff" transform="rotate(-13.28 1077.874 924.484)"></circle>
    <circle cx="1166.91" cy="924.34" r="30.84" style="fill:#fff"></circle>
    <circle cx="1256.17" cy="924.34" r="30.84" style="fill:#fff" transform="rotate(-45 1256.173 924.336)"></circle>
    <circle cx="1345.44" cy="924.34" r="30.84" style="fill:#fff"></circle>
    <circle cx="1434.7" cy="924.34" r="30.84" style="fill:#fff" transform="rotate(-13.28 1434.977 924.481)"></circle>
    <circle cx="1523.96" cy="924.34" r="30.84" style="fill:#fff" transform="rotate(-80.78 1524.023 924.328)"></circle>
    <circle cx="988.39" cy="1008.73" r="30.84" style="fill:#fff"></circle>
    <circle cx="1077.65" cy="1008.73" r="30.84" style="fill:#fff" transform="rotate(-22.5 1077.642 1008.72)"></circle>
    <circle cx="1166.91" cy="1008.73" r="30.84" style="fill:#fff"></circle>
    <circle cx="1256.17" cy="1008.73" r="30.84" style="fill:#fff" transform="rotate(-22.5 1256.17 1008.72)"></circle>
    <circle cx="1345.44" cy="1008.73" r="30.84" style="fill:#fff"></circle>
    <circle cx="1434.7" cy="1008.73" r="30.84" style="fill:#fff" transform="rotate(-22.5 1434.7 1008.719)"></circle>
    <circle cx="1523.96" cy="1008.73" r="30.84" style="fill:#fff" transform="rotate(-67.5 1523.959 1008.73)"></circle>
    <circle cx="988.39" cy="1093.12" r="30.84" style="fill:#fff"></circle>
    <circle cx="1077.65" cy="1093.12" r="30.84" style="fill:#fff" transform="rotate(-45 1077.647 1093.124)"></circle>
    <circle cx="1166.91" cy="1093.12" r="30.84" style="fill:#fff"></circle>
    <circle cx="1256.17" cy="1093.12" r="30.84" style="fill:#fff" transform="rotate(-13.28 1256.425 1093.326)"></circle>
    <circle cx="1345.44" cy="1093.12" r="30.84" style="fill:#fff"></circle>
    <circle cx="1434.7" cy="1093.12" r="30.84" style="fill:#fff" transform="rotate(-45 1434.707 1093.125)"></circle>
    <circle cx="1523.96" cy="1093.12" r="30.84" style="fill:#fff" transform="rotate(-22.5 1523.975 1093.138)"></circle>
    <circle cx="988.39" cy="1177.52" r="30.84" style="fill:#fff"></circle>
    <circle cx="1077.65" cy="1177.52" r="30.84" style="fill:#fff" transform="rotate(-22.5 1077.643 1177.529)"></circle>
    <circle cx="1166.91" cy="1177.52" r="30.84" style="fill:#fff"></circle>
    <circle cx="1256.17" cy="1177.52" r="30.84" style="fill:#fff" transform="rotate(-22.5 1256.172 1177.528)"></circle>
    <circle cx="1345.44" cy="1177.52" r="30.84" style="fill:#fff"></circle>
    <circle cx="1434.7" cy="1177.52" r="30.84" style="fill:#fff" transform="rotate(-22.5 1434.7 1177.527)"></circle>
    <circle cx="1523.96" cy="1177.52" r="30.84" style="fill:#fff" transform="rotate(-67.5 1523.962 1177.52)"></circle>
    <circle cx="988.39" cy="1261.91" r="30.84" style="fill:#fff"></circle>
    <circle cx="1077.65" cy="1261.91" r="30.84" style="fill:#fff" transform="rotate(-13.28 1077.879 1262.128)"></circle>
    <circle cx="1166.91" cy="1261.91" r="30.84" style="fill:#fff"></circle>
    <circle cx="1256.17" cy="1261.91" r="30.84" style="fill:#fff" transform="rotate(-45 1256.181 1261.913)"></circle>
    <circle cx="1345.44" cy="1261.91" r="30.84" style="fill:#fff"></circle>
    <circle cx="1434.7" cy="1261.91" r="30.84" style="fill:#fff" transform="rotate(-13.28 1434.982 1262.125)"></circle>
    <circle cx="1523.96" cy="1261.91" r="30.84" style="fill:#fff" transform="rotate(-80.78 1524.033 1261.907)"></circle>
    <circle cx="988.39" cy="1346.31" r="30.84" style="fill:#fff"></circle>
    <circle cx="1077.65" cy="1346.31" r="30.84" style="fill:#fff" transform="rotate(-58.28 1077.718 1346.333)"></circle>
    <circle cx="1166.91" cy="1346.31" r="30.84" style="fill:#fff"></circle>
    <circle cx="1256.17" cy="1346.31" r="30.84" style="fill:#fff" transform="rotate(-10.9 1256.294 1346.384)"></circle>
    <circle cx="1345.44" cy="1346.31" r="30.84" style="fill:#fff"></circle>
    <circle cx="1434.7" cy="1346.31" r="30.84" style="fill:#fff" transform="rotate(-58.28 1434.788 1346.325)"></circle>
    <circle cx="1523.96" cy="1346.31" r="30.84" style="fill:#fff" transform="rotate(-13.28 1524.281 1346.527)"></circle>
    <rect width="1146.67" height="834.83" x="2551.43" y="731.14" rx="57.97" style="opacity:.3"></rect>
    <rect width="1146.67" height="834.83" x="2505.82" y="675.61" rx="57.97" style="fill:#fff"></rect>
    <rect width="1146.67" height="834.83" x="2505.82" y="675.61" rx="57.97" style="fill:#aa4eb7"></rect>
    <rect width="329.88" height="198.29" x="2602.09" y="871.04" rx="12" style="fill:#be63ce"></rect>
    <rect width="329.88" height="78.54" x="2602.09" y="1117.34" rx="12" style="fill:#7c3089"></rect>
    <rect width="329.88" height="78.54" x="2602.09" y="1244.76" rx="12" style="fill:#be63ce"></rect>
    <rect width="329.88" height="78.54" x="2602.09" y="1372.17" rx="12" style="fill:#7c3089"></rect>
    <path d="M3594.52 675.61H2563.79a58 58 0 0 0-58 58v7h1146.7v-7a58 58 0 0 0-57.97-58Z" style="fill:#fff"></path>
    <path d="M2505.82 740.57h1146.67v71.46H2505.82z" style="opacity:.4"></path>
    <circle cx="3603.59" cy="708.09" r="17.25" style="fill:#aa4eb7"></circle>
    <circle cx="3552.6" cy="708.09" r="17.25" style="fill:#aa4eb7"></circle>
    <circle cx="3501.6" cy="708.09" r="17.25" style="fill:#aa4eb7"></circle>
    <path d="M2750.68 690.84h-180a15.39 15.39 0 0 0-14.2 9.47l-16.79 40.26h242l-16.79-40.26a15.39 15.39 0 0 0-14.22-9.47Z" style="fill:#d18ce0"></path>
    <path d="M2966.06 690.84h-180a15.39 15.39 0 0 0-14.2 9.47l-16.79 40.26h242l-16.79-40.26a15.39 15.39 0 0 0-14.22-9.47Z" style="fill:#aa4eb7"></path>
    <path d="M3182.81 690.84h-180a15.41 15.41 0 0 0-14.21 9.47l-16.79 40.26h242L3197 700.31a15.39 15.39 0 0 0-14.19-9.47Z" style="fill:#d18ce0"></path>
    <path d="M3398.19 690.84h-180a15.39 15.39 0 0 0-14.2 9.47l-16.79 40.26h241.95l-16.79-40.26a15.39 15.39 0 0 0-14.17-9.47Z" style="fill:#aa4eb7"></path>
    <path d="M2539.72 757.18h979.13v34.61h-979.13zM3610.74 760.35l15.96 15.95-15.96 15.96 2.83 2.82 18.78-18.78-18.78-18.78-2.83 2.83zM3559.86 757.52l-18.77 18.78 18.77 18.78 2.83-2.82-15.95-15.96 15.95-15.95-2.83-2.83z" style="fill:#fff"></path>
    <path d="M3605.8 774.3h23.72v4h-23.72zM3546.12 774.3h23.72v4h-23.72z" style="fill:#fff"></path>
    <rect width="789.88" height="575.07" x="2788.24" y="854.21" rx="39.93" style="opacity:.4"></rect>
    <rect width="789.88" height="575.07" x="2735.97" y="808.4" rx="39.93" style="fill:#e58ef4"></rect>
    <path d="M3485.91 808.4h-710a39.94 39.94 0 0 0-39.91 39.94v4.82h789.88v-4.82a39.94 39.94 0 0 0-39.97-39.94Z" style="fill:#fff"></path>
    <path d="M2735.97 853.16h789.88v49.23h-789.88z" style="fill:#f3bbff"></path>
    <rect width="674.35" height="328.06" x="2777.63" y="999.17" rx="40.91" style="fill:#f3bbff"></rect>
    <path d="m2973.2 1077.85-47.12 247.86h162.32l13.97-82.04 22.69 82.04h151.85l-33.16-277.53-270.55 29.67z" style="fill:#d13364"></path>
    <g style="clip-path:url(#clip-path)">
      <g style="opacity:.3">
        <path d="m2995.16 1123-6.76 31.22-13.2 62.51c-8.8 41.67-17.28 83.41-25.77 125.15l-12.55 62.63c-4.1 20.9-8.31 41.78-12.31 62.69l-12.11 62.8-5.88 31.4-2.94 15.7-2.87 15.72 3.46-15.6 3.39-15.61 6.77-31.22 13.2-62.51c4.44-20.82 8.67-41.7 13-62.54l12.76-62.6c8.39-41.76 16.77-83.51 24.85-125.33l12.11-62.73 5.89-31.4 2.94-15.7 2.87-15.71-3.46 15.59Z" style="fill:#fff"></path>
      </g>
      <g style="opacity:.3">
        <path d="m3268 1550.67-4.69-29-9.7-57.91c-3.2-19.31-6.6-38.59-9.91-57.88l-10.15-57.84c-6.88-38.54-13.77-77.07-21-115.56l-10.8-57.72-5.57-28.83-2.78-14.41-2.86-14.4 2.26 14.5 2.34 14.5 4.69 29 9.71 57.92c6.47 38.61 13.26 77.16 20.05 115.72l10.36 57.8c3.53 19.25 7 38.52 10.6 57.76l10.8 57.72 5.57 28.83 2.79 14.41 2.86 14.4-2.26-14.5Z" style="fill:#fff"></path>
      </g>
      <path d="m3016.84 1365.86 106.48-10.48-26.18-137.89-80.3 148.37z" style="opacity:.5"></path>
    </g>
    <path d="m2779.89 670.72-36.22-.43-17.2 32.55a20.63 20.63 0 0 0 3.29 23.87l23.51 24.74 51.06 1.31-4.36-45Z" style="fill:#ff8aa6"></path>
    <rect width="8.73" height="279.27" x="2754.15" y="465.34" rx="1.75" style="fill:#491051"></rect>
    <rect width="15.27" height="37.56" x="2742.48" y="649.5" rx="3.06" style="fill:#ffcad2" transform="rotate(-71.15 2750.185 668.264)"></rect>
    <rect width="15.27" height="42.33" x="2736.49" y="663.1" rx="3.06" style="fill:#ffcad2" transform="rotate(-71.15 2744.188 684.241)"></rect>
    <rect width="15.27" height="35.19" x="2726.39" y="680.9" rx="3.06" style="fill:#ffcad2" transform="rotate(-71.15 2734.094 698.472)"></rect>
    <rect width="15.27" height="22.89" x="2719.18" y="702.63" rx="3.06" style="fill:#ffcad2" transform="rotate(-71.15 2726.885 714.047)"></rect>
    <path d="M2759.38 655c-4.36 3.93 11.79 25.75 11.79 25.75s-21.82 21.82-8.3 45.82S2793 753.2 2793 753.2l8.73-33.17s7.86-24-.43-37.53-37.55-31.41-41.92-27.5Z" style="fill:#ffcad2"></path>
    <path d="M2794.71 741.16a36.31 36.31 0 0 1-18.18-54.94c2.23-3.24 5.15-7 3.7-10.66a10.35 10.35 0 0 0-3.37-3.9c-8.18-6.65-17.59-15.1-16-25.51l-12-6c-5.62 1.45-6.36 9.47-3.84 14.7s7 9.59 8.1 15.29c1.67 8.83-5.33 16.64-8.78 24.94-6.76 16.21.24 34.6 7.5 50.59 1.84 4 3.77 8.17 7 11.25 5.47 5.27 13.67 6.54 21.25 6.18 8.53-.41 17.55-2.91 23-9.49a7.59 7.59 0 0 0 1.87-3.59c.68-4.89-5.59-7.27-10.25-8.86Z" style="fill:#ff8aa6;clip-path:url(#clip-path-2)"></path>
    <path d="m3102.37 658.94-37.82 3.49L3077.93 816s39.57 130.36 43.07 128.61 64-277.52 64-277.52l-20.37-8.15Z" style="fill:#fff"></path>
    <path d="m3096.55 657.19-17.46 5.24 5.82 37.24 30.26-20.07 37.24 25.89 16.87-40.15-18.62-15.71-54.11 7.56z" style="fill:#d8d8d8"></path>
    <path d="m3095.97 653.12-17.46 5.24 5.82 37.24 30.26-20.08 37.23 25.89 16.88-40.14-18.62-15.71-54.11 7.56z" style="fill:#fff"></path>
    <path d="M3159.12 485.63s-6.37-25.94-35-24.58-48.24 6.37-53.25 8.19 10 6.37 10 6.37-45.05 3.65-52.33 13.66 10.46 20.93 6.37 23.66-5.46 10-4.55 16.39 13.19 15 15 15.92 121.51 32.32 121.51 32.32 57.78-73.27-7.75-91.93Z" style="fill:#6c1b75"></path>
    <g style="clip-path:url(#clip-path-3)">
      <path d="M3172.61 512.48a15.36 15.36 0 0 0-7.09-3.43 18.46 18.46 0 0 0-7.44.8c-10.71 2.86-21.29 8.23-32.27 6.73-3.07-.42-6.19-1.47-8.29-3.74-2.47-2.68-3.11-6.59-5.24-9.54-2.55-3.54-7-5.29-11.29-5.9-18.19-2.55-34.72 11.85-53.06 12.82-5.53.29-11.06-.65-16.59-.56s-11.41 1.44-15.24 5.43c-4.16 4.35-5 11.12-3.44 16.92s5.36 10.77 9.5 15.14c11.79 12.42 27.14 20.94 43 27.31A210.61 210.61 0 0 0 3175.31 587c2.87-.45 6.5-1.91 6.21-4.8l-13.52 4.24c-3-3.46-.07-8.65 2.61-12.33 6.69-9.2 12.17-19.65 13.39-31s-2.5-23.54-11.39-30.63ZM3165.66 456.44c-13.91-9.16-30.28-14.23-46.84-16s-33.34-.3-49.7 2.83c-7.15 1.37-14.34 3.1-20.77 6.51s-12.12 8.71-14.73 15.51a7.24 7.24 0 0 0-.55 4.38c.75 2.82 4 4 6.88 4.67 31.53 6.91 64.46-6.55 96.41-1.95 9.29 1.34 18.77 4.47 25.17 11.33l12.29-14.34c1.11-5.32-3.63-9.95-8.16-12.94Z" style="fill:#491051"></path>
    </g>
    <path d="M3143 561.58v-6l-7.85-22.78s-22.7 1.31-32.73 2.62-.87-5.67-.87-5.67-32.73 3.49-42.77.87a97.65 97.65 0 0 0-11.43-2.39 20.83 20.83 0 0 0-3 10.68v47.59a49.46 49.46 0 0 0 48.11 49.28l-1.7 14.61-.59 5.06s17.89 17.89 24.44 20.07 39.27-15.71 38.4-26.18c-.65-7.75-1.3-35.33-1.59-49.15a25.66 25.66 0 0 0 14.61-4.72c10.68-7.43 14.1-21 7.63-30.28s-20.08-10.75-30.66-3.61Z" style="fill:#ffcad2"></path>
    <path d="M3139.5 498.1a189 189 0 0 0-74.68-5.25c-8.31 1.09-16.66 2.77-24.16 6.49s-14.16 9.69-17.32 17.45c-1.74 4.28-2.31 9.37-.06 13.41 3.18 5.73 10.53 7.35 17 8.26q10.41 1.47 20.88 2.47c8.82.85 18.68 1.15 25.45-4.57a34.84 34.84 0 0 0 32.81 5.65c3.27-1.14 7.21-2.69 9.87-.48a8.79 8.79 0 0 1 1.92 2.62l10.22 18.45 22-29.32c5.78-6.31 4.09-16.95-1.56-23.38s-14.12-9.52-22.37-11.8Z" style="fill:#ff8aa6;clip-path:url(#clip-path-4)"></path>
    <path d="M3166.58 582.6a6 6 0 0 1-2 1.92 9.25 9.25 0 0 1-5.18 1.21 10.17 10.17 0 0 1-4.7-1.4 3.44 3.44 0 0 1-.65-6.07 10.09 10.09 0 0 1 4.3-2.36 9.24 9.24 0 0 1 5.31.07 6 6 0 0 1 2.33 1.45 4.34 4.34 0 0 1 1.21 2.49 6.18 6.18 0 0 0-3.31-4.44 12.36 12.36 0 0 0-5.76-1.57 11.06 11.06 0 0 0-6.17 1.6 7.75 7.75 0 0 0-2.51 2.55 6.06 6.06 0 0 0 .8 7.45 7.66 7.66 0 0 0 3 2 11.13 11.13 0 0 0 6.37.26 12.44 12.44 0 0 0 5.29-2.76 6.17 6.17 0 0 0 2.29-5 4.37 4.37 0 0 1-.62 2.6Z" style="fill:#ff83a1"></path>
    <path d="M3121.05 543.81a18.57 18.57 0 0 0-1.92-1.37 16.28 16.28 0 0 0-4.46-2 13.33 13.33 0 0 0-5.13-.35 14.91 14.91 0 0 0-5 1.57l-.28.15a3 3 0 1 0 3.18 5.2l.21-.12a9.08 9.08 0 0 1 2.8-1.32 7.89 7.89 0 0 1 3.15-.2 11.8 11.8 0 0 1 3.31 1 14.65 14.65 0 0 1 1.61.86 15.28 15.28 0 0 1 1.43 1l.15.13a2 2 0 0 0 2.69-2.94 15.62 15.62 0 0 0-1.74-1.61ZM3071.3 540.06a14.83 14.83 0 0 0-4.91-1.73 13.22 13.22 0 0 0-5.14.2 16.27 16.27 0 0 0-4.51 1.81 18.62 18.62 0 0 0-2 1.3 17.15 17.15 0 0 0-1.83 1.59 2 2 0 0 0 2.6 3l.16-.12a16.11 16.11 0 0 1 1.46-1 15.44 15.44 0 0 1 1.63-.81 11.78 11.78 0 0 1 3.34-.87 7.63 7.63 0 0 1 3.14.29 9.27 9.27 0 0 1 2.77 1.4l.2.14.27.16a3 3 0 1 0 2.79-5.42Z" style="fill:#842117"></path>
    <path d="M3082.81 563.23s-12.52 20.57-2.16 23c7.63 1.77 8.37-2.57 8.94-6.2s-1.89-20.77-6.78-16.8Z" style="fill:#ff8aa6"></path>
    <path d="M3062 557.52a5.59 5.59 0 1 0 5.29 5.86 5.59 5.59 0 0 0-5.29-5.86ZM3113.83 558.92a5.58 5.58 0 1 0 5.3 5.86 5.57 5.57 0 0 0-5.3-5.86ZM3100.62 597.41c-10.91 2.62-26.18 0-26.18 0s-.87 14.84 11.35 16.58 25.74-19.2 14.83-16.58Z" style="fill:#662714"></path>
    <path d="M3089.06 586.94c-11.69 0-21.16 4-21.16 8.95s9.47 8.94 21.16 8.94 21.17-4 21.17-8.94-9.48-8.95-21.17-8.95Z" style="fill:#fff;clip-path:url(#clip-path-5)"></path>
    <path d="M3126.37 572.1a14 14 0 1 0 14 14 14 14 0 0 0-14-14ZM3122.88 624c-7 7-30.44 11.75-30.44 11.75l-1.7 14.61c18.33.53 38.89-33.08 32.14-26.36Z" style="fill:#ff8aa6"></path>
    <path d="M3158.54 541.69c-1 1.74-1.94 3.44-2.92 5.1s-2 3.3-3.08 4.94-2.28 3.21-3.48 5.1a13.8 13.8 0 0 0 5.81-3 18.88 18.88 0 0 0 4.19-5 21.33 21.33 0 0 0 2.41-6 15.7 15.7 0 0 0 .24-6.48c-1.19 1.83-2.18 3.65-3.17 5.34Z" style="opacity:.5"></path>
    <g style="opacity:.5">
      <path d="M3151.44 500c0-.5-.07-1-.13-1.5-.5-.12-1-.22-1.59-.31Z"></path>
      <path d="m3164.88 509.66-.51-1.43a14.28 14.28 0 0 0-3.57-5 20.07 20.07 0 0 0-5.17-3.29 20.94 20.94 0 0 0-2.86-1.07c-.49-.16-1-.29-1.46-.41.06.5.11 1 .13 1.5l-1.72-1.81c.57.09 1.09.19 1.59.31a17.51 17.51 0 0 0-2.26-6.94 14.06 14.06 0 0 0-6.79-5.79 20 20 0 0 0-8.37-1.3 23.81 23.81 0 0 0-8 1.7 47.05 47.05 0 0 1 7.85.47 22.32 22.32 0 0 1 7 2.22 12 12 0 0 1 4.83 4.68 17.11 17.11 0 0 1 1.9 6.73l.16 1.63 1.56.17a23.76 23.76 0 0 1 2.52.46c.43.1.86.21 1.28.34l1.26.39a21.89 21.89 0 0 1 4.74 2.24 14.56 14.56 0 0 1 3.82 3.57 16.1 16.1 0 0 1 2.31 5c0-.48 0-1 .05-1.46v-.74c0-.24-.07-.48-.11-.73 0-.44-.06-.95-.18-1.44Z"></path>
    </g>
    <path d="M3115.44 553a5.48 5.48 0 0 0-4.17 1.26 6.25 6.25 0 0 0-1.29 1.53 6.89 6.89 0 0 0-.63 1.89 13 13 0 0 0 1.85-.35c.57-.06 1.05-.25 1.52-.28a7.4 7.4 0 0 1 2.28-.05 9.42 9.42 0 0 1 2.3.55c.9.32 1.9.75 3.19 1.24a5.27 5.27 0 0 0-1.27-3.71 5.71 5.71 0 0 0-3.78-2.08ZM3063.08 550.18a5.5 5.5 0 0 0-4.17 1.26 6.26 6.26 0 0 0-1.3 1.53 6.52 6.52 0 0 0-.62 1.9 12.5 12.5 0 0 0 1.84-.36c.58-.06 1.05-.24 1.52-.28a8.17 8.17 0 0 1 2.28-.07 8.89 8.89 0 0 1 2.29.56c.91.32 1.91.75 3.19 1.24a5.29 5.29 0 0 0-1.26-3.72 5.77 5.77 0 0 0-3.77-2.06Z" style="fill:#ff83a1"></path>
    <path d="M3130.88 688.61s-10.48-8.14-15.13-10.47-14.55 8.73-14.55 8.73l3.5 18L3085.5 887l37.81 61.1 17.46-66.33-15.13-177.46Z" style="fill:#ffc336"></path>
    <path d="M3179.83 759c-1.78-14-7.65-27.21-14.44-39.62-4.72-8.63-10-17.24-11.67-26.94-1-6-.75-12.51-4.2-17.48-4.33-6.22-12.77-7.65-20.29-8.56l-13.89 8.94c-1.32 4.61.77 9.4 2.23 14s2 10.26-1.49 13.54c-4.36 4.08-11.56 1.54-17.25 3.36 4.07 1.49 8.51 1.55 12.73 2.55s8.57 3.34 10 7.44c1.11 3.22.16 6.72-.42 10.07-1.73 9.95-.11 20.13.77 30.19 2 22.68.17 45.51-1.63 68.2Q3119.1 839 3118 853.4c-.87 10.91-2 22.51-8.74 31.14-5.1 6.54-12.76 10.46-19.35 15.51s-12.6 12.41-11.85 20.68c.68 7.52 6.74 13.39 13 17.61a80.73 80.73 0 0 0 62.94 11.44c5.81-1.38 11.63-3.51 16-7.57 8.38-7.75 9.57-20.41 9.64-31.83.2-35.37-5.19-70.77-2.1-106 1.33-15.14 4.21-30.38 2.29-45.38Z" style="fill:#db9200;clip-path:url(#clip-path-6)"></path>
    <path d="M3226.88 675.81c-25.9-6.16-51.2-12.8-51.2-12.8s-40.68 171.06-55.86 236.22-51.19-238.54-51.19-238.54-34.92 7.16-58.19 15.12c-8.74 3-21.68 17.88-26.76 23.28-18.63 19.77-101.24 102.4-101.24 102.4l-69.82-85-76.8 36.08s76.8 185 147.79 169.89q10.53-2.26 19.65-5.12c50.53-15.64 70.78-42.76 74.12-47.65.33-.51.48-.77.48-.77l-10 110-1.8 20-10.35 114.33 302.54 3.49S3293.46 729.24 3276 699c-6.61-11.43-33.2-19.38-49.12-23.19Z" style="fill:#d13364"></path>
    <path d="m3374.44 675.22-93.57-20.65c-31.18 31.85-43.45 77.72-48 122.07s-2.64 89.39-11.07 133.16c-3.89 20.19-10.1 40.24-21.39 57.42-16 24.37-41.14 41.3-67.08 54.63a390.77 390.77 0 0 1-120 38.79c-39.54 6-85.22 8.61-109.44 40.44-3 3.9-5.57 8.38-5.69 13.28-.19 7.84 5.94 14.38 12.35 18.91 18.25 12.89 41.14 16.89 63.2 20.42 107.76 17.21 217.31 31.1 325.79 19.24 45.22-4.94 96-18.77 116.25-59.53 19.28-38.89 2.44-84.91-10.91-126.21a736 736 0 0 1-30.44-311.97Z" style="opacity:.5;clip-path:url(#clip-path-7)"></path>
    <path d="M3123.31 893.11c-15.13 90.38-48.57-229.81-48.57-229.81s-29.54.85-52.8 11.89l24.87 105.95 22.1 3.22-13.38 18s43.34 108.51 59.64 108.51 67.49-107.93 67.49-107.93l-11.34-22.69 17.45-.58 52.36-97.75c-24.43-12.8-59.34-15.4-59.34-15.4s-43.34 136.21-58.48 226.59Z" style="opacity:.5"></path>
    <path d="M3123.31 893.11c-15.13 90.38-54.68-232.42-54.68-232.42s-29.54.84-52.8 11.88l24.87 105.95 22.1 3.22-13.37 18s49.44 111.13 65.74 111.13 61.38-110.55 61.38-110.55l-11.34-22.69 17.45-.58L3235 679.3c-24.43-12.8-59.34-15.39-59.34-15.39s-37.21 138.82-52.35 229.2ZM3002.35 964.19a8.76 8.76 0 0 0-3.58.78l-30.87 14-1.8 20 39.9-18.15a8.73 8.73 0 0 0-3.65-16.67Z" style="fill:#edabbb"></path>
    <path d="M3221.12 995.05 3178 980.68l-55.85 148.96-19.78-6.98 47.7-147.79-5.81-3.49-52.36 158.26 35.07 12.03 142.9 49.01 22.16 7.61 13.97-4.66 53.53-152.43-60.69-20.23-77.72-25.92z" style="fill:#ffc336"></path>
    <path d="M3295.79 1033.75a21.68 21.68 0 0 0 3.05-12.78l-77.72-25.92c-.65 1.27-1.23 2.56-1.8 3.84a589 589 0 0 1-79.14 128.57 109.68 109.68 0 0 1-13.21 14.21l142.9 49c-5.55-10.82-6.92-23.9-1.35-34.56 4.52-8.69 12.85-14.68 18.94-22.36a52.1 52.1 0 0 0 8.75-47.07c-4.46-14.27-15.12-29.45-8-42.59 2.03-3.76 5.34-6.7 7.58-10.34Z" style="opacity:.5"></path>
    <path d="m3102.37 1122.65 21.52 7.57 50.62-141.39-26.76-8.14-45.38 141.96z" style="fill:#fff"></path>
    <path d="M3152 1004.77c-1.12 3.24-2.11 6.54-2.94 9.88a69.49 69.49 0 0 0-1.86 10.26 70.73 70.73 0 0 0 4.83-9.24q2.09-4.73 3.75-9.61c1.11-3.25 2.1-6.54 2.94-9.88a70.82 70.82 0 0 0 1.86-10.26 70.73 70.73 0 0 0-4.83 9.24c-1.42 3.15-2.66 6.36-3.75 9.61ZM3124.5 1081.34q-2.74 6.86-5 13.86t-4.16 14.13a137 137 0 0 0-3 14.49 147.55 147.55 0 0 0 6-13.52q2.68-6.87 5-13.86t4.21-14.1c.65-2.37 1.22-4.76 1.8-7.15l1.6-7.23a53.78 53.78 0 0 0-3.46 6.59c-1.08 2.25-2.07 4.51-2.99 6.79Z" style="opacity:.5"></path>
    <path d="M3253.35 689.49c-56.73 14.83-21.23 97.16-9 159.13s13.37 96.58 13.37 96.58l-82 144.87 83.78 48.87s114.33-135.27 115.2-192-64.62-272.29-121.35-257.45Z" style="fill:#d13364"></path>
    <path d="m3418.49 1135.93-78.11-49.72q-126.93-2-253.85 1.89c38.47 34.92 80.62 66.38 127.73 88.28s99.51 34 151.26 29.3c18.74-1.68 38.48-6.17 51.63-19.62s15.93-38.25 1.34-50.13Z" style="opacity:.5;clip-path:url(#clip-path-8)"></path>
    <path d="M3154.73 1108.4c-8.73 20.07-34.91 44.51-23.56 44.51a33.87 33.87 0 0 0 19.2-6.11s-5.24 17.45.87 20.94 16.58-2.61 25.31 7 28.8 13.09 28.8 13.09 22.69-1.75 24.44-15.71 7.85-48 7.85-48l-61.09-34.91s-13.09-.89-21.82 19.19Z" style="fill:#ffcad2"></path>
    <g style="clip-path:url(#clip-path-9)">
      <path d="M3157.59 1126.27a1.84 1.84 0 0 0-.7.5l-18 17.78c-1.95 1.92-4 3.9-6.53 4.88s-5.81.71-7.57-1.39l-5 2.41c-1.32.74-1.57 2.51-1.52 4a21.74 21.74 0 0 0 30 19.36 2.5 2.5 0 0 0 1.11-.71 2.93 2.93 0 0 0 .21-2.28c-2.44-14.18 4.91-27.93 9.25-41.65.36-1.23 0-3.29-1.25-2.9ZM3210.67 1185.12c-5.59-1.58-10.55-5.68-16.36-5.66-2.29 0-4.67.66-6.8-.16-2.44-.94-3.77-3.49-5.25-5.65a25.45 25.45 0 0 0-6.74-6.67 6.1 6.1 0 0 0-2.7-1.17c-1.67-.17-3.2.87-4.57 1.84-4.56 3.26-10.95 6.37-15.37 2.91l9.83 14.32c-.1 2.14 1.68 3.87 3.39 5.17 16.86 12.8 41.92 13.51 59.48 1.68 3.18-2.14 6.34-5 6.7-8.86-7.04 2.13-14.54 4.26-21.61 2.25ZM3197 1073.58l-29.54 8.39c21.49 25.92 47.74 49.87 80.24 58.7 2.93.8 6.32 1.39 8.77-.39 4-2.87 2.34-9.1-.06-13.36-13.18-23.45-36.74-38.86-59.41-53.34Z" style="fill:#ff8aa6"></path>
    </g>
    <g style="opacity:.5">
      <path d="M3310.63 945.3c-.31-.22-31.81-21.61-54.25-1.6a2 2 0 0 0 2.67 3c20.08-17.91 49 1.7 49.31 1.9a2 2 0 0 0 1.13.35 2 2 0 0 0 1.14-3.64Z" style="fill:#fff"></path>
    </g>
    <g style="opacity:.5">
      <path d="M3299.16 912.36c-.37 0-36.75-2.13-41.67 24.91a2 2 0 0 0 1.61 2.33h.36a2 2 0 0 0 2-1.64c4.28-23.53 37.13-21.65 37.46-21.63a2 2 0 0 0 .27-4Z" style="fill:#fff"></path>
    </g>
    <path d="m2977.38 869.74 1.64-6.58 9.32-50-85.08 104.27c50.53-15.68 70.74-42.8 74.12-47.69Z" style="opacity:.5"></path>
    <g style="opacity:.5">
      <path d="M2884 800.29a2 2 0 0 0-3.2 2.4c.14.18 13.65 18.3 14.74 28.11a2 2 0 0 0 2 1.78h.23a2 2 0 0 0 1.76-2.21c-1.19-10.9-14.91-29.3-15.53-30.08Z" style="fill:#fff"></path>
    </g>
    <path d="M3137.61 559.51a1.59 1.59 0 0 0-1.64 1.55v.08a29.57 29.57 0 0 1-1.46 8.16 21.06 21.06 0 0 1-3.88 7.16 16.6 16.6 0 0 1-2.92 2.7 17.59 17.59 0 0 1-3.5 1.88 21.84 21.84 0 0 1-8 1.27 23.41 23.41 0 0 1-8-1.45 13.88 13.88 0 0 1-6.14-4.63c-3.08-4.16-3.79-10.17-3.08-15.4v-.12a2 2 0 0 0-4-.56 28 28 0 0 0-.26 4.78 28.84 28.84 0 0 0 .49 4.71 21 21 0 0 0 3.75 8.87 17.7 17.7 0 0 0 7.84 5.8 27.13 27.13 0 0 0 9.3 1.6 25.3 25.3 0 0 0 9.33-1.61 20.65 20.65 0 0 0 4.24-2.34 19.73 19.73 0 0 0 3.51-3.32 24.3 24.3 0 0 0 4.41-8.32 34.16 34.16 0 0 0 1.09-4.52 32 32 0 0 0 .43-4.68 1.6 1.6 0 0 0-1.51-1.61ZM3075.49 558.53a1.6 1.6 0 0 0-1.54 1.65v.1c.18 5.36-1 11.24-4.23 15.38a15.17 15.17 0 0 1-2.79 2.7 14.32 14.32 0 0 1-3.43 1.83 20.75 20.75 0 0 1-7.92 1.15 23 23 0 0 1-7.9-1.52 15.83 15.83 0 0 1-3.35-1.92 14.69 14.69 0 0 1-2.65-2.75c-3-4.15-3.69-10.1-3-15.28v-.12a2 2 0 0 0-4-.55 27.33 27.33 0 0 0-.26 4.73 28.31 28.31 0 0 0 .47 4.66 21 21 0 0 0 3.65 8.8 18.05 18.05 0 0 0 3.44 3.49 19.88 19.88 0 0 0 4.24 2.37 26.57 26.57 0 0 0 9.2 1.69 24.3 24.3 0 0 0 9.26-1.47 17.46 17.46 0 0 0 7.66-5.73 22.53 22.53 0 0 0 3.91-8.52 30.6 30.6 0 0 0 .74-4.55 29.87 29.87 0 0 0 .08-4.65 1.59 1.59 0 0 0-1.58-1.49Z" style="fill:#fff"></path>
    <path d="M3075.55 563.89a2 2 0 0 0 2.22 3.33c10.56-7.06 17.19-.29 17.49 0a2 2 0 0 0 1.46.63 2 2 0 0 0 1.35-.53 2 2 0 0 0 .12-2.83c-.1-.07-9.19-9.61-22.64-.6Z" style="fill:#fff"></path>
    <path d="M1431.99 2687.18h32.78l171.14-600.8h-105.6l-98.32 600.8zM2054.65 2086.38l171.14 600.8h32.77l-98.31-600.8h-105.6z" style="fill:#dd5888"></path>
    <path d="M2247.64 2002.63h-72.83v-640.86c0-74.1-60.62-134.73-134.72-134.73h-487.93c-74.1 0-134.73 60.63-134.73 134.73v722.79a78.29 78.29 0 0 0 78.29 78.29h751.92a80.11 80.11 0 0 0 80.11-80.11 80.11 80.11 0 0 0-80.11-80.11Z" style="fill:#dd5888"></path>
    <path d="M3141.32 1944c-14.4 15.55-30.6 34-44.77 53.5-10.16 13.94-19.27 28.39-25.93 42.59-29.69 63.29-21.81 139.45-13.16 210.26.23 1.84.61 3.95 2.07 4.85 1.9 1.15 4.13-.52 5.76-2.11 19-18.55 38.14-35.94 56.47-55 32.75-34 63.56-70.79 87.57-113.11 37.59-66.26 57.35-149.29 37-224.37-37.86 22.79-74.01 49.9-105.01 83.39ZM2822.05 2081.93c.37 48 1.42 96.7 13.78 142.68s37.53 89.61 75.54 112c20.6 12.12 43.78 17.41 65.68 26.24s41.48 22.15 54.77 44c6.92-65.39-22.32-135.8-53.68-189.19-36.81-62.77-92.14-112.33-156.09-135.73ZM3087.32 2369.94c-2.09 8.85-16.67 45.93-7.39 51.67 3.77 2.34 63.26-23.21 72.78-25.56 50.38-12.43 98.72-39.45 133.53-82 37.29-45.6 56.82-105.41 75.47-163.57-63.75 16-128.81 33.71-183.18 74.2-47.46 35.32-76.82 84.39-91.21 145.26Z" style="fill:#ffc336"></path>
    <path d="M3134.94 2351.33c-17.85 15.83-36.32 32.21-49.41 53.88-21.55 35.64-25.48 80.39-29 119.88l4 .35c3.43-39.05 7.32-83.31 28.39-118.17 12.78-21.14 31-37.31 48.65-52.95l101.59-90.08-2.65-3ZM3042.13 2512.06c.75-19.44 1.53-39.55.23-59.23-2.53-38.33-12.83-77.37-31.48-119.34-17.59-39.57-40.26-76.44-60.12-107.29l-3.36 2.16c19.77 30.72 42.34 67.43 59.82 106.75 18.46 41.54 28.65 80.13 31.15 118 1.29 19.48.51 39.47-.24 58.81-1.09 28.11-2.22 57.18 3 85.22l3.93-.73c-5.14-27.62-4.06-56.41-2.93-84.35Z"></path>
    <path d="M3056.94 2280.57c-6.39 41.49-7 84.17-7.63 125.44l-2.3 156.2 4 .06 2.3-156.2c.61-41.13 1.23-83.67 7.58-124.89 12.15-78.92 44.67-151.6 76.12-221.89l-3.65-1.63c-31.56 70.53-64.19 143.46-76.42 222.91Z"></path>
    <path d="M2951.47 2737.38s207.14-2.42 207.23-3.65l13.78-209.36H2935s16.43 212.63 16.47 213.01Z" style="fill:#dd5888"></path>
    <path d="M2941.37 2595.52c3-1.29 6-2.64 9-3.92 44.37-19 89.14-36.81 134.31-52.32q18.54-7.55 37.11-14.91H2935Z" style="opacity:.5"></path>
    <path d="M2927.77 2485.85v57.41a35.08 35.08 0 0 0 6.18.6h236.72l5.71-58.59H2934a35.77 35.77 0 0 0-6.23.58Z" style="fill:#dd5888"></path>
    <path d="m2250.12 2666.8 13.33-81.91 22.55-138.64-230.81-38.47s-12.64 68.27-22.46 138.15c-7.31 52-13.06 104.87-10.88 131.13 69.25 28.21 271.84 74.37 282.1 59s-53.83-69.26-53.83-69.26Z" style="fill:#ff8aa6"></path>
    <path d="m2250.12 2666.8 13.33-81.91c-69 10.64-165.46-16.18-230.7-39-7.31 52-13.06 104.87-10.88 131.13 69.25 28.21 271.84 74.37 282.1 59s-53.85-69.22-53.85-69.22Z" style="fill:#ca4e4b"></path>
    <path d="m2331.08 2518.21-386-26.71 43.69 68s152.94 102 298.6 53.41 43.71-94.7 43.71-94.7Z" style="fill:#fff;clip-path:url(#clip-path-10)"></path>
    <path d="M2015.8 1774.65h-296.19l57.7 142.33 319.27 211.56-88.48 373.12 292.34 96.16s165.41-503.9 111.56-615.45-396.2-207.72-396.2-207.72Z" style="fill:#db9200"></path>
    <ellipse cx="2347.97" cy="2478.9" rx="172.77" ry="77.61" transform="rotate(-25.5 2348.357 2479.157)"></ellipse>
    <path d="M2165.81 1878.51c-115.39-26.92-342.34-92.32-342.34-92.32l-196.18-38.46s-61.54 257.72 34.62 311.57 319.27 65.39 319.27 65.39l215.08 434.4s142.34-228.24 307.74-151.31c-92.31-203.87-222.79-502.34-338.19-529.27Z" style="fill:#ffc336"></path>
    <g style="clip-path:url(#clip-path-11)">
      <path d="M1576.09 1923.44c-77.69 138.37 575.34 762.27 575.34 762.27l157.8-179.64s-148.09-174.79-320.45-383.57c-373.85-50.98-412.69-199.06-412.69-199.06Z" style="opacity:.5"></path>
      <path d="M1841.44 2020.48c-3.67-1.54-7.37-3.12-11-4.71a2 2 0 0 0-1.6 3.67c3.66 1.59 7.38 3.19 11.07 4.73a2.07 2.07 0 0 0 .77.15 2 2 0 0 0 .77-3.84ZM1863.67 2029.4c-3.73-1.44-7.48-2.91-11.15-4.38a2 2 0 1 0-1.49 3.71c3.68 1.48 7.45 3 11.2 4.4a2 2 0 0 0 .72.13 2 2 0 0 0 .72-3.86ZM1819.49 2010.9c-3.62-1.65-7.27-3.34-10.86-5a2 2 0 0 0-1.71 3.61c3.6 1.71 7.27 3.42 10.92 5.07a2 2 0 0 0 .82.18 2 2 0 0 0 .83-3.82ZM1978.1 2064.6c-3.86-.91-7.78-1.86-11.65-2.82a2 2 0 1 0-1 3.88c3.88 1 7.82 1.92 11.7 2.83a1.76 1.76 0 0 0 .46.06 2 2 0 0 0 .45-4ZM1776.56 1989.69c-3.52-1.88-7-3.82-10.5-5.74a2 2 0 0 0-2 3.49c3.47 1.94 7 3.88 10.56 5.78a2.06 2.06 0 0 0 .95.24 2 2 0 0 0 .94-3.77ZM2001.51 2069.75c-3.88-.79-7.83-1.63-11.72-2.49a2 2 0 0 0-.86 3.91c3.91.86 7.87 1.7 11.78 2.5a1.87 1.87 0 0 0 .4 0 2 2 0 0 0 .4-4ZM1954.85 2058.8c-3.83-1-7.72-2.07-11.57-3.14a2 2 0 0 0-1.07 3.86c3.86 1.07 7.77 2.13 11.62 3.14a1.79 1.79 0 0 0 .51.07 2 2 0 0 0 .51-3.93ZM1886.15 2037.68c-3.77-1.33-7.57-2.7-11.27-4.06a2 2 0 1 0-1.38 3.75c3.72 1.37 7.53 2.74 11.32 4.08a1.92 1.92 0 0 0 .66.12 2 2 0 0 0 .67-3.89ZM1931.76 2052.37c-3.82-1.11-7.68-2.27-11.48-3.44a2 2 0 1 0-1.17 3.82c3.81 1.18 7.69 2.34 11.52 3.46a1.87 1.87 0 0 0 .57.08 2 2 0 0 0 .56-3.92ZM1755.67 1978c-3.46-2-6.92-4.06-10.29-6.11a2 2 0 1 0-2.07 3.42c3.39 2.06 6.87 4.13 10.35 6.15a2 2 0 0 0 2-3.46ZM1908.85 2045.33c-3.79-1.22-7.62-2.48-11.38-3.75a2 2 0 0 0-1.27 3.79c3.77 1.28 7.61 2.54 11.43 3.77a1.86 1.86 0 0 0 .61.1 2 2 0 0 0 .61-3.91ZM1797.85 2000.65a819.45 819.45 0 0 1-10.69-5.39 2 2 0 0 0-1.83 3.56c3.53 1.81 7.15 3.63 10.75 5.41a2 2 0 0 0 .89.21 2 2 0 0 0 .88-3.79ZM1650.45 1808.53h.21a2 2 0 0 0 2-1.79c.41-3.88.95-7.84 1.61-11.77a2 2 0 1 0-3.94-.66c-.68 4-1.23 8-1.65 12a2 2 0 0 0 1.77 2.22ZM1656.54 1865.58a2 2 0 0 0-3.87 1c1 3.92 2.2 7.84 3.51 11.64a2 2 0 0 0 1.89 1.35 1.92 1.92 0 0 0 .66-.12 2 2 0 0 0 1.23-2.54c-1.28-3.7-2.43-7.51-3.42-11.33ZM1649.73 1832.5a2 2 0 0 0 2-2c0-1.53-.06-3-.06-4.57 0-2.41.05-4.87.15-7.29a2 2 0 0 0-4-.17c-.1 2.48-.15 5-.15 7.46q0 2.32.06 4.68a2 2 0 0 0 2 1.94ZM1654.17 1784.82a2.28 2.28 0 0 0 .44 0 2 2 0 0 0 2-1.56c.87-3.82 1.86-7.7 3-11.52a2 2 0 1 0-3.84-1.1c-1.11 3.9-2.12 7.84-3 11.74a2 2 0 0 0 1.4 2.44ZM1660.53 1761.68a2.1 2.1 0 0 0 .65.1 2 2 0 0 0 1.89-1.35c1.29-3.75 2.68-7.5 4.15-11.16a2 2 0 1 0-3.71-1.49c-1.5 3.72-2.92 7.54-4.22 11.36a2 2 0 0 0 1.24 2.54ZM1735.21 1965.61l-.26-.16c-3.3-2.1-6.55-4.26-9.65-6.43a2 2 0 1 0-2.3 3.27c3.16 2.21 6.46 4.41 9.81 6.54l.26.16a2 2 0 0 0 2.14-3.38ZM1715.75 1951.94c-3.15-2.46-6.22-5-9.14-7.58a2 2 0 1 0-2.65 3c3 2.62 6.12 5.22 9.32 7.73a2 2 0 0 0 1.23.42 2 2 0 0 0 1.24-3.57ZM1689.82 1927.6a2 2 0 0 0-3 2.64c2.63 3 5.42 6 8.31 8.84a2 2 0 0 0 1.41.58 2 2 0 0 0 1.41-3.41 172.97 172.97 0 0 1-8.13-8.65ZM1677.34 1727.82a2 2 0 0 0-3.44-2c-.1.16-2.36 4-5.57 10.88a2 2 0 1 0 3.62 1.69c3.12-6.7 5.37-10.54 5.39-10.57ZM1675.52 1908.73a2 2 0 0 0-3.36 2.17c2.17 3.36 4.52 6.71 7 9.95a2 2 0 1 0 3.18-2.42c-2.41-3.16-4.7-6.43-6.82-9.7ZM1664.29 1887.92a2 2 0 0 0-3.66 1.61c1.62 3.69 3.42 7.36 5.34 10.92a2 2 0 0 0 1.76 1 2 2 0 0 0 1-.24 2 2 0 0 0 .81-2.71c-1.92-3.42-3.67-6.99-5.25-10.58ZM1654 1854c-.68-3.84-1.22-7.79-1.61-11.73a2 2 0 0 0-4 .39c.4 4 1 8.09 1.65 12a2 2 0 0 0 2 1.65h.35a2 2 0 0 0 1.61-2.31ZM2199 2284.17a2 2 0 0 0-3.2 2.41l7.21 9.59a2 2 0 0 0 3.2-2.4ZM2256.7 2360.92a2 2 0 1 0-3.19 2.4l7.21 9.59a2 2 0 0 0 1.6.8 2 2 0 0 0 1.2-.4 2 2 0 0 0 .39-2.8ZM2227.87 2322.55a2 2 0 0 0-3.2 2.4l7.21 9.59a2 2 0 1 0 3.19-2.4ZM2213.45 2303.36a2 2 0 0 0-3.2 2.4l7.21 9.6a2 2 0 0 0 3.2-2.41ZM2271.12 2380.1a2 2 0 0 0-3.2 2.41l7.21 9.59a2 2 0 0 0 1.6.8 2 2 0 0 0 1.6-3.2ZM2242.28 2341.73a2 2 0 1 0-3.19 2.41l7.21 9.59a2 2 0 0 0 1.6.8 2 2 0 0 0 1.2-.41 2 2 0 0 0 .39-2.8ZM2285.54 2399.29a2 2 0 1 0-3.2 2.4l7.21 9.6a2 2 0 0 0 3.2-2.41ZM2343.22 2476a2 2 0 0 0-3.2 2.41l1.6 2.13a2 2 0 1 0 3.2-2.41ZM2328.8 2456.85a2 2 0 0 0-3.2 2.4l7.21 9.59a2 2 0 0 0 2.8.4 2 2 0 0 0 .4-2.8ZM2300 2418.48a2 2 0 1 0-3.2 2.4l7.21 9.59a2 2 0 0 0 3.2-2.4ZM2314.38 2437.66a2 2 0 1 0-3.2 2.41l7.21 9.59a2 2 0 0 0 1.6.8 1.94 1.94 0 0 0 1.2-.41 2 2 0 0 0 .4-2.8ZM2098.1 2149.87a2 2 0 0 0-3.2 2.4l7.21 9.6a2 2 0 0 0 3.2-2.41ZM2069.26 2111.5a2 2 0 1 0-3.2 2.4l7.21 9.6a2 2 0 0 0 1.6.79 2 2 0 0 0 1.6-3.2ZM2025.07 2074.18c-3.79-.64-7.76-1.35-11.8-2.11a2 2 0 0 0-.74 3.93c4.06.76 8 1.48 11.87 2.13a1.87 1.87 0 0 0 .34 0 2 2 0 0 0 .33-4ZM2083.68 2130.69a2 2 0 0 0-3.2 2.4l7.21 9.59a2 2 0 1 0 3.2-2.4ZM2054.84 2092.31a2 2 0 0 0-3.19 2.41l7.2 9.59a2 2 0 0 0 1.6.8 2 2 0 0 0 1.6-3.2ZM2043.28 2076.92l-.85-.1s-2-.23-5.53-.76a2 2 0 1 0-.58 4c2.28.33 3.88.55 4.78.67l3.34 4.43a2 2 0 0 0 1.6.8 2 2 0 0 0 1.59-3.2ZM2141.35 2207.43a2 2 0 1 0-3.19 2.4l7.21 9.6a2 2 0 0 0 1.6.79 2 2 0 0 0 1.59-3.2ZM2170.19 2245.8a2 2 0 1 0-3.2 2.4l7.21 9.6a2 2 0 0 0 1.6.8 1.94 1.94 0 0 0 1.2-.41 2 2 0 0 0 .4-2.8ZM2112.52 2169.06a2 2 0 1 0-3.2 2.4l7.21 9.59a2 2 0 0 0 2.8.4 2 2 0 0 0 .4-2.8ZM2155.77 2226.62a2 2 0 1 0-3.19 2.4l7.2 9.59a2 2 0 0 0 2.81.4 2 2 0 0 0 .39-2.8ZM2184.61 2265a2 2 0 1 0-3.2 2.4l7.21 9.59a2 2 0 0 0 2.8.4 2 2 0 0 0 .4-2.8ZM2126.94 2188.24a2 2 0 0 0-3.2 2.41l7.21 9.59a2 2 0 1 0 3.19-2.4Z" style="fill:#fff"></path>
    </g>
    <path d="m2520.21 2555.61-48.72-89.76-40.07-74.69s-123 0-202.3 126.24c0 0 31 37.06 60.62 78.73 39.42 55.5 92.27 120.17 124.48 120.17 56.42 0 215.42-116.24 222.24-135s-116.25-25.69-116.25-25.69Z" style="fill:#ffcad2"></path>
    <path d="M2611.38 2566.69c-34.29-7.92-91.17-11.08-91.17-11.08l-48.72-89.76c-98.79 2.69-150.46 77.76-181.75 130.28 30.36 42.75 68.68 90.91 99.4 110.81 9.18 5.95 17.67 9.36 25.08 9.36 56.42 0 215.42-116.24 222.24-135 2.18-6.07-8.95-10.86-25.08-14.61Z" style="fill:#ca4e4b"></path>
    <path d="m2573.84 2392-342.29 41.27-36.42 160.22 82.54 60.7s92.25-157.8 259.76-169.94 36.41-92.25 36.41-92.25Z" style="fill:#fff;clip-path:url(#clip-path-12)"></path>
    <path d="M2611.38 2566.69c-85.78 1.87-180 93.71-222.24 140.25 9.18 5.95 17.67 9.36 25.08 9.36 56.42 0 215.42-116.24 222.24-135 2.18-6.07-8.95-10.86-25.08-14.61Z" style="opacity:.5"></path>
    <path d="m2066.47 1590.85 5.8-5.56-3.38-4.15-2.42 9.71zM2072.27 1585.29l135 165.79 111.67-101.96-135.95-169.94-110.72 106.11z" style="fill:#ff8aa6"></path>
    <path d="M2020.34 1263.12c-77.59-42.88-197.44-58.26-197.44-58.26s-150.51 8.91-225 85-69.6 274.32-69.6 274.32l82.54 233 424 8.09 19.42-171.54 86.74-69.75 70.25-56.49s-98.66-193.39-190.91-244.37Z" style="fill:#aa4eb7"></path>
    <g style="clip-path:url(#clip-path-13)">
      <g style="opacity:.5">
        <rect width="56.64" height="17.8" x="1677.24" y="1323" rx="3.67" style="fill:#fff" transform="rotate(-35.88 1705.676 1331.944)"></rect>
      </g>
      <g style="opacity:.5">
        <rect width="17.8" height="56.64" x="1793.76" y="1437.91" rx="3.67" style="fill:#fff" transform="rotate(-72.65 1802.7 1466.233)"></rect>
      </g>
      <g style="opacity:.5">
        <rect width="17.8" height="56.64" x="1877.92" y="1695.24" rx="3.67" style="fill:#fff" transform="rotate(-72.65 1886.865 1723.567)"></rect>
      </g>
      <g style="opacity:.5">
        <rect width="17.8" height="56.64" x="1756.54" y="1586.81" rx="3.67" style="fill:#fff" transform="rotate(-72.65 1765.478 1615.136)"></rect>
      </g>
      <g style="opacity:.5">
        <rect width="17.8" height="56.64" x="1536.43" y="1426.58" rx="3.67" style="fill:#fff" transform="rotate(-72.65 1545.371 1454.906)"></rect>
      </g>
      <g style="opacity:.5">
        <rect width="56.64" height="17.8" x="1915.95" y="1534.21" rx="3.67" style="fill:#fff" transform="rotate(-35.88 1944.412 1543.16)"></rect>
      </g>
      <g style="opacity:.5">
        <rect width="56.64" height="17.8" x="2119.88" y="1422.54" rx="3.67" style="fill:#fff" transform="rotate(-35.88 2148.358 1431.486)"></rect>
      </g>
      <g style="opacity:.5">
        <rect width="56.64" height="17.8" x="2019.53" y="1689.58" rx="3.67" style="fill:#fff" transform="rotate(-35.88 2048.007 1698.54)"></rect>
      </g>
      <g style="opacity:.5">
        <rect width="56.64" height="17.8" x="1601.98" y="1692.81" rx="3.67" style="fill:#fff" transform="rotate(-35.88 1630.432 1701.789)"></rect>
      </g>
      <g style="opacity:.5">
        <rect width="56.64" height="17.8" x="1865.78" y="1309.25" rx="3.67" style="fill:#fff" transform="rotate(-35.88 1894.23 1318.19)"></rect>
      </g>
      <g style="opacity:.5">
        <rect width="56.64" height="17.8" x="2026.01" y="1276.88" rx="3.67" style="fill:#fff" transform="rotate(-35.88 2054.467 1285.815)"></rect>
      </g>
      <g style="opacity:.5">
        <rect width="56.64" height="17.8" x="1642.44" y="1487.27" rx="3.67" style="fill:#fff" transform="rotate(-35.88 1670.879 1496.231)"></rect>
      </g>
      <g style="opacity:.5">
        <rect width="17.8" height="56.64" x="2024.39" y="1377.22" rx="3.67" style="fill:#fff" transform="rotate(-56.11 2033.16 1405.525)"></rect>
      </g>
      <g style="opacity:.5">
        <rect width="17.8" height="56.64" x="1778.39" y="1191.1" rx="3.67" style="fill:#fff" transform="rotate(-56.11 1787.176 1219.413)"></rect>
      </g>
      <g style="opacity:.5">
        <rect width="17.8" height="56.64" x="2063.23" y="1511.55" rx="3.67" style="fill:#fff" transform="rotate(-56.11 2071.99 1539.854)"></rect>
      </g>
    </g>
    <path d="M2020.58 1000.31s29.84-6.38 4.63-34.2-69.07-17.59-56.91-28.94-20.23-33.17-90.43-25.24-57.46 61.45-57.12 65.62c0 0-38.2-5.29-50.63 51.27s36.65 101.69 36.65 101.69L2008 1070.2s33.68-4.71 40.82-29.23-28.24-40.66-28.24-40.66Z" style="fill:#d13364"></path>
    <g style="clip-path:url(#clip-path-14)">
      <path d="M2042.92 1003.11c-2.24-1.11-4.72-2.45-5.39-4.85-1.26-4.52 4.61-7.8 5.8-12.33s-2.55-8.79-6.17-11.76c-19.43-15.93-44.78-23.78-69.89-24.16s-50 6.36-72.75 17c-9.57 4.5-19 9.84-26 17.73s-11.45 18.73-9.5 29.13c-31.86-7.12-65.3 15.87-76.88 46.39s-4.63 65.61 11 94.24l-9.34-33.22c7.72 14.37 26.54 17.67 42.8 19q50.55 4 101.31 3.08c47.22-.86 96.92-5.79 135.61-32.86 14.67-10.27 27.94-24.88 29.79-42.69 1.52-14.5-5-29-14.73-39.82s-22.58-18.41-35.66-24.88Z" style="fill:#ad1e58"></path>
    </g>
    <path d="m1943.8 1024.84 19.64 22.59s-39.36 1.69-75.91-19.77c-7.13 33-33.14 53.43-42.71 60-.17 1.57-.31 3.15-.42 4.77 0 .37 0 .74-.06 1.07a41.86 41.86 0 0 0-12.28-4.07c-21-3.47-40.57 9.18-43.72 28.25s11.31 37.34 32.3 40.81c1.47.25 2.9.39 4.33.5l-27.92 67.6s27.29 65.16 67.64 69.79 50.15-42.11 50.15-42.11-.27-1.34-.64-3.62c-1.11-6.85-3.15-22.15-1.66-35.47a2.28 2.28 0 0 1 2.56-2h.06a.66.66 0 0 1 .29.11l.26.08c4.81 2.24 14 3.3 17.59 3.86 53.73 8.64 95.16-47.35 99.09-108 1.55-23.75-3.22-50.35-13.27-69-53.42 3.09-72.94-13.23-75.32-15.39Z" style="fill:#ffcad2"></path>
    <path d="M1995.59 989.46c-16.58-5.6-34.21-7.22-51.67-8.22-25.54-1.47-52.26-1.47-75.27 9.72s-40.94 36.73-35.38 61.7l6.43 41.62a81.72 81.72 0 0 0 49.41-32.54c1.67-2.37 3.28-4.89 5.69-6.48 5.17-3.4 12-1.48 17.94.21a164.16 164.16 0 0 0 73.52 3.65 6.94 6.94 0 0 0-3.51-5.33 133 133 0 0 0 40.38-2.57c6.95-1.53 14.52-4.23 17.68-10.61 3.28-6.63.44-14.68-3.56-20.9-9.48-14.71-25.09-24.65-41.66-30.25Z" style="fill:#ff8aa6;clip-path:url(#clip-path-15)"></path>
    <path d="M1914.2 1250.65c-1.11-6.85-3.15-22.15-1.66-35.47a2.28 2.28 0 0 1 2.56-2c-5.28-1.67-43.82-14.3-58.57-29.18-15.25-15.43 4.97 59.85 57.67 66.65Z" style="fill:#ff8aa6"></path>
    <path d="M1844.37 1117.52a17.57 17.57 0 0 0-9.5-2.22 18.79 18.79 0 0 0-9 2.63 12.07 12.07 0 0 0-3.4 3.08 7.94 7.94 0 0 0-1.55 4.22 7.23 7.23 0 0 1 1.67-4.13 9.83 9.83 0 0 1 3.55-2.68 15.69 15.69 0 0 1 8.61-1.11 16.72 16.72 0 0 1 7.67 3.09c2.12 1.6 3.49 3.82 3.39 6s-1.65 4.23-3.91 5.64a16.65 16.65 0 0 1-7.92 2.39 15.79 15.79 0 0 1-8.48-1.89 10.08 10.08 0 0 1-3.3-3 7.25 7.25 0 0 1-1.28-4.27 7.87 7.87 0 0 0 1.17 4.35 11.88 11.88 0 0 0 3.11 3.37 18.82 18.82 0 0 0 8.69 3.43 17.68 17.68 0 0 0 9.66-1.36 11.92 11.92 0 0 0 4.18-3.22 8.75 8.75 0 0 0 .49-10.69 11.93 11.93 0 0 0-3.85-3.63Z" style="fill:#ff83a1"></path>
    <path d="M1938.36 1061a25 25 0 0 0-3.09-2 29.62 29.62 0 0 0-3.26-1.57 24.84 24.84 0 0 0-7.16-1.79 19.52 19.52 0 0 0-7.61.74 22.28 22.28 0 0 0-6.88 3.51l-.15.11a3 3 0 1 0 3.78 4.77l.22-.18a16.34 16.34 0 0 1 4.78-2.93 14.13 14.13 0 0 1 5.58-1 20.49 20.49 0 0 1 5.88 1 23.35 23.35 0 0 1 2.87 1.12 22 22 0 0 1 2.65 1.43l.12.07a2 2 0 0 0 2.27-3.28ZM2010.88 1065.27c-.43-.38-.87-.7-1.32-1a22.63 22.63 0 0 0-2.81-1.74 26.55 26.55 0 0 0-6.16-2.35c-.54-.14-1.08-.22-1.62-.33a13.27 13.27 0 0 0-1.64-.25l-1.65-.18h-1.65a32.88 32.88 0 0 0-3.29.11c-1.09.1-2.17.28-3.25.43h-.24a3 3 0 1 0 1.27 6l.29-.06c.88-.19 1.77-.43 2.67-.59s1.8-.32 2.7-.33l1.35-.08h1.36a10.19 10.19 0 0 1 1.35.08c.44.06.9.08 1.34.16a21.32 21.32 0 0 1 5.2 1.48 19.51 19.51 0 0 1 2.42 1.21c.38.24.77.47 1.12.73s.74.56 1 .75l.19.15a2 2 0 0 0 2.7-2.92 15.57 15.57 0 0 0-1.33-1.27Z" style="fill:#771523"></path>
    <path d="M1958.45 1124.63c1 5.82 2.29 12.77 14.49 9.76 16.59-4.11-4-36.85-4-36.85-7.94-6.28-11.49 21.28-10.49 27.09Z" style="fill:#ff8aa6"></path>
    <path d="M1998.85 1089.92a9 9 0 1 0 9.92 7.91 9 9 0 0 0-9.92-7.91ZM1926.06 1082.39a9 9 0 1 0 9.92 7.91 9 9 0 0 0-9.92-7.91Z" style="fill:#771523"></path>
    <circle cx="1889.92" cy="1123.23" r="26.61" style="fill:#ff769d" transform="rotate(-82.74 1889.98 1123.215)"></circle>
    <path d="M1860.35 955.24c-.5.3-1 .59-1.49.91l-1.43 1.05a21.66 21.66 0 0 0-4.86 5.27 18.57 18.57 0 0 0-2.59 6.78 20.44 20.44 0 0 0 .06 7.11 25.44 25.44 0 0 0 5.91 12.15 42 42 0 0 1-2.79-12.51 19.25 19.25 0 0 1 2.79-11.39 21.81 21.81 0 0 1 3.9-4.49 35.58 35.58 0 0 1 5-3.64 100.17 100.17 0 0 1 11.72-5.68 37.06 37.06 0 0 0-13.15 2.88 27.1 27.1 0 0 0-3.07 1.56ZM1953.42 981.59a73 73 0 0 1-7-2.13c-2.31-.82-4.62-1.64-7-2.5-4.63-1.73-9.36-3.32-14.2-4.66a84.72 84.72 0 0 0-14.91-2.7 61.81 61.81 0 0 0-15.24.7c-1.27.19-2.47.54-3.71.8s-2.46.52-3.67.9l-3.63 1.1c-1.21.35-2.38.91-3.56 1.35a34.76 34.76 0 0 0-12.73 8.4 18.89 18.89 0 0 0-3.8 6.67 14.56 14.56 0 0 0-.23 7.49 13.54 13.54 0 0 1 .22-3.66 14.65 14.65 0 0 1 1-3.45 18.05 18.05 0 0 1 4.17-5.69 35.37 35.37 0 0 1 12.42-6.85c1.16-.35 2.26-.81 3.45-1.07l3.5-.91c1.17-.31 2.38-.47 3.56-.72s2.39-.5 3.57-.63a60.18 60.18 0 0 1 14.32-.44 86.32 86.32 0 0 1 14.28 2.37c4.74 1.09 9.42 2.59 14.17 4a107.24 107.24 0 0 0 14.54 3.6 25 25 0 0 0 7.62 0 12.39 12.39 0 0 0 6.68-3.35 12.76 12.76 0 0 1-6.81 2.24 24.58 24.58 0 0 1-7.01-.86ZM1834.62 1025.79a37.44 37.44 0 0 0-4.71 3.09 32.38 32.38 0 0 0-7.62 8.37 41.76 41.76 0 0 0-4.54 10.34 59.09 59.09 0 0 0-1.52 22.07 73.81 73.81 0 0 0 5.33 21.13 143.48 143.48 0 0 1-2.23-21.33 88.21 88.21 0 0 1 .38-10.55 52.43 52.43 0 0 1 1.89-10.23 36 36 0 0 1 10.32-17.41 41.26 41.26 0 0 1 4-3.23 43.2 43.2 0 0 1 4.55-2.6 62.35 62.35 0 0 1 10-3.9 40.1 40.1 0 0 0-15.87 4.25Z" style="opacity:.5"></path>
    <path d="M1964.14 1169.72c-28.37 5.22-33.12-10-33.31-10.71a2 2 0 0 0-3.86 1.06c.19.69 4.31 14.74 26.16 14.74a64.87 64.87 0 0 0 11.74-1.16 2 2 0 0 0-.73-3.93Z" style="fill:#ff83a1"></path>
    <path d="M1957.22 1614.32c-66.35-21-291.31 30.75-291.31 30.75s3.23-6.47 14.56-87.39c-51.79-43.7-148.89-25.9-148.89-25.9s-44.68 214.35 21 237.91c85.77 30.75 292.93-58.26 320.45-55s55-1.62 55-1.62l6.48 19.42 119.76-1.61s-30.69-95.52-97.05-116.56Z" style="fill:#ffcad2"></path>
    <path d="M1690.18 1570.62c-121.38-4.85-127.85 126.24-100.34 103.58s79.3-32.37 79.3-32.37l66.36-55s76.07-11.35-45.32-16.21Z" style="fill:#ff8aa6;clip-path:url(#clip-path-16)"></path>
    <path d="M1967.26 1706.12a2 2 0 1 0-3.89.9l4.85 21a2 2 0 0 0 2 1.55 2.3 2.3 0 0 0 .45 0 2 2 0 0 0 1.5-2.4ZM2007.73 1707.74a2 2 0 1 0-3.9.9l4.85 21a2 2 0 0 0 2 1.55 2.3 2.3 0 0 0 .45 0 2 2 0 0 0 1.5-2.4Z" style="fill:#ff8aa6"></path>
    <path d="m2054.33 1633.75 86.74-69.75-68.95-121.23-17.79 190.98zM1729.15 1404.36a2 2 0 0 0-2.12 1.87c-2.38 38.14-31.17 124.86-31.46 125.73a2 2 0 0 0 1.26 2.53 2 2 0 0 0 .64.1 2 2 0 0 0 1.89-1.37c.08-.22 7.39-22.19 14.9-48.64 10.11-35.57 15.75-61.85 16.76-78.1a2 2 0 0 0-1.87-2.12ZM1747.24 1511.58a2 2 0 0 0-2.81.37c-23.73 30.86-52.54 47.88-52.83 48a2 2 0 0 0 1 3.73 2 2 0 0 0 1-.27 212.51 212.51 0 0 0 54-49.06 2 2 0 0 0-.36-2.77Z" style="opacity:.5"></path>
    <path d="m1568.92 1970-129.66 790h40.06l198.56-839.04 27.21-114.97h-109.24L1568.92 1970z" style="fill:#d13364"></path>
    <path d="M1568.92 1970a234.73 234.73 0 0 1 109-49l27.21-115h-109.28Z" style="opacity:.5"></path>
    <path d="M3049.93 1805.99h-109.25l27.22 114.97L3166.45 2760h40.06l-129.66-790-26.92-164.01z" style="fill:#d13364"></path>
    <path d="m2940.69 1806 27.21 115a234.75 234.75 0 0 1 108.95 49l-26.92-164Z" style="opacity:.5"></path>
    <rect width="1787.86" height="83.75" x="1431.99" y="1747.73" rx="12" style="fill:#d13364"></rect>
    <path d="m2217.78 1398.27-80.91 301.03-224.97 29.13v19.42h737.2l76.88-335.01-14.56-14.57h-493.64z" style="fill:#6c1b75"></path>
    <g style="clip-path:url(#clip-path-17)">
      <path d="M2720.29 1428.56c-26 13.09-45.29 36-66.52 55.91a352 352 0 0 1-148.71 82.68c-65.65 17.61-135.59 15.93-200.4 36.43-82.51 26.1-152.53 89.19-187.08 168.53l5.74 3.91c1.91 10.25 14.83 13.4 25.21 14.32q86.92 7.64 174.26 9c90.17 1.42 232.42 29.43 314.17-8.64 96.52-45 118.41-165.92 161.08-263.48 12.54-28.68 22-64.73 2.33-89.06-18.31-22.57-54.1-22.68-80.08-9.6Z" style="opacity:.5;fill:#ae4abc"></path>
    </g>
    <path d="m2217.78 1395.84-80.91 301.03L1911.9 1726v19.42h263.18l60.52-335.01h490.38l-14.56-14.57h-493.64z" style="fill:#390d3f"></path>
    <path d="M2469.74 1529.59c-17.69-.39-35.75 5.94-50.9 17.85s-25.59 28-29.4 45.22-.47 34 9.46 46.6c10.55 13.43 26.91 20.21 44.59 20.2 16.51 0 34.19-5.91 49.35-17.81 31.39-24.66 40.34-65.86 19.93-91.83-9.93-12.64-25.21-19.82-43.03-20.23Zm21.86 110.48Zm-1.23-1.57c-29.67 23.3-69.29 22.53-88.32-1.71-9.18-11.68-12.27-27-8.7-43.27s13.53-31.61 28-42.94c14-11 30.58-17 46.86-17h1.48c16.6.38 30.8 7 40 18.7 18.98 24.25 10.31 62.92-19.32 86.22Z" style="fill:#fff"></path>
  </g>
</svg>
